<svg xmlns="http://www.w3.org/2000/svg" xmlns:xlink="http://www.w3.org/1999/xlink" viewBox="0 0 376.5934 544.5627"><defs><style>.cls-1{fill:#e6e7e8;}.cls-1,.cls-3{stroke:#bcbec0;stroke-miterlimit:10;}.cls-2{fill:#bcbec0;}.cls-3{fill:url(#radial-gradient);}.cls-4{fill:#464547;}.cls-5{fill:#fff;}</style><radialGradient id="radial-gradient" cx="282.5501" cy="218.1087" r="142.2855" gradientTransform="translate(0 181.1823) scale(1 0.1693)" gradientUnits="userSpaceOnUse"><stop offset="0.233" stop-color="#2a2771"/><stop offset="0.9525" stop-color="#2450a3" stop-opacity="0.96"/></radialGradient></defs><g id="Stem"><path class="cls-1" d="M307.5776,480.3086c-15.8006,3.5211-32.9375,3.3038-48.7075,6.0276l.0265-22.4253.061-51.4138.0084-7.0844a82.4078,82.4078,0,0,1,13.981-3.8012c11.8629-1.1674,23.3781-1.9982,34.6306-3.0383v81.7354ZM356.969,616.38c-.5142-.9273-1.3053-2.3726-2.2482-4.1788l-71.336,8.918q-16.8505-2.1067-33.7013-4.2132c20.41,2.71,70.73,6.9542,90.16-20.8238a39.71,39.71,0,0,0,2.3325-3.7669c-2.668-5.6184-4.9493-10.1632-6.5188-13.2364-5.8886-11.5307-11.3384-21.11-19.33-35.9872l-.7144-1.33-8.0355-14.96V514.8738c-8.6358,1.0135-17.739,2.8634-27.5073,4.2127-6.7489.9322-15.1736,1.48-21.2543,4.64l-.0055,3.5234-1.7567,3.27-16.07,29.9184-31.9741,59.5264c.12-.0049.24-.0109.36-.0159-2.1977,4.1694-5.4184,10.7622-5.4189,13.7647v0c.0011,1.7825,11.98,2.7818,21.6353,3.5871,8.9224.7443,27.7112,1.7349,67.8735,1.16l-.0008-.01c27.5342.0774,41.7336-.7084,49.133-1.3256,9.6548-.8054,21.6343-1.8046,21.6353-3.5871v0C364.2263,629.3851,358.0555,618.34,356.969,616.38Z" transform="translate(-125.1371 -94.5701)"/></g><g id="Shadows"><path id="_1" data-name="1" class="cls-2" d="M233.7132,635.9743c-1.2223-.0947-7.2291-.62-7.2307-.62l-.0014,0-.0009,0-.0007,0c-3.6819-.4646-7.9069-1.2816-10.4925-2.7366l132.2806-33.5511,11.1869,21.9462a143.1914,143.1914,0,0,1-15.4177,5.2521,146.2184,146.2184,0,0,1-14.2967,3.2026c-15.0894,2.6676-45.5778,8.7722-72.2162,7.6439C241.6013,636.4359,235.6423,636.1238,233.7132,635.9743Z" transform="translate(-125.1371 -94.5701)"/><path class="cls-2" d="M307.5776,368.455a9.9772,9.9772,0,0,1,.386-2.9336c1.4705-5.0683,6.3969-6.3438,6.3126-7.6415-.3018-4.6469-64.5228-4.4578-64.7871.6644-.0784,1.5211,5.5423,2.32,8.25,8.0144a14.0311,14.0311,0,0,1,1.2907,6.2439Z" transform="translate(-125.1371 -94.5701)"/><path id="_2" data-name="2" class="cls-2" d="M307.5766,525.95l.0116-27.0626-53.4941,10.2937.5518,27.001a184.326,184.326,0,0,1,20.0494-5.8106A181.0911,181.0911,0,0,1,307.5766,525.95Z" transform="translate(-125.1371 -94.5701)"/><path id="_3" data-name="3" class="cls-2" d="M259.1468,424.0064a118.0347,118.0347,0,0,1,13.7158-2.6273c5.2856-.694,8.5367-.7621,19.3117-1.3425,3.6064-.1943,8.9076-.4918,15.4033-.9022V394L259.03,398.7124Q259.0882,411.3594,259.1468,424.0064Z" transform="translate(-125.1371 -94.5701)"/></g><g id="outer-cup"><path class="cls-1" d="M436.5059,207.4194q-2.237.1539-4.4991.3042t-4.5468.2984q-2.2837.1479-4.5928.292t-4.64.2851q-2.3305.1407-4.6845.2774t-4.7305.27q-2.376.1334-4.7754.2617t-4.8193.2529q-2.42.1245-4.8623.2437t-4.9063.2344q-2.4639.1142-4.9492.2241t-4.9912.2134q-2.5048.1039-5.0322.2026t-5.0733.1909q-2.5473.093-5.1142.1792t-5.1534.167q-2.5869.0806-5.1923.1543-2.4507.07-4.89.1323t-4.8672.1192q-2.4287.0564-4.8447.1059t-4.82.0928q-2.4052.0432-4.7969.08t-4.7715.0674q-2.3788.0308-4.7461.0546-2.3656.0249-4.72.0425t-4.6934.03q-2.3392.0125-4.6655.0181t-4.6377.0063q-2.3123.0007-4.6094-.0049t-4.5805-.0166q-2.283-.011-4.5513-.0278t-4.521-.0386l-.1689-.0156c-.3081.0034-.6245.0073-.93.0073s-.6221-.0034-.93-.0068l-.17.0156q-2.24.0221-4.4951.0391T272.01,212.2q-2.27.0117-4.5537.0176t-4.5831.0058q-2.2983,0-4.6108-.0058t-4.6387-.0176q-2.3261-.0117-4.6655-.03t-4.6924-.0415q-2.3524-.0241-4.7182-.0542t-4.7437-.0669q-2.3781-.0366-4.7685-.08t-4.7925-.0928q-2.4017-.0491-4.8155-.1054t-4.8388-.1187q-2.4251-.063-4.8609-.1323-2.5927-.0732-5.1665-.1538t-5.1279-.167q-2.5539-.0864-5.0879-.1792t-5.0478-.1914q-2.5137-.0988-5.0074-.2026t-4.9658-.2139q-2.4718-.11-4.9238-.2246t-4.8814-.2344q-2.43-.12-4.8383-.2441t-4.795-.2534q-2.3862-.129-4.75-.2623t-4.7066-.271q-2.3415-.137-4.6611-.2783t-4.6157-.2856q-2.2962-.145-4.5694-.293t-4.5234-.2988q-2.25-.1516-4.4761-.3057a2.917,2.917,0,0,0-2.44,1.27,1.8454,1.8454,0,0,0-.1612,2.3218q1.9629,2.2361,3.8472,4.479t3.6885,4.4844q1.8039,2.2419,3.5268,4.4785t3.3628,4.4614q1.64,2.2251,3.1978,4.4341t3.0327,4.396q1.4751,2.187,2.8677,4.3487t2.7041,4.2919q1.3117,2.13,2.543,4.2256t2.3833,4.1509q1.152,2.0551,2.2275,4.0679,1.0752,2.0112,2.0757,3.9756t1.9277,3.8764q.9281,1.9124,1.7857,3.7691t1.6484,3.6533q.791,1.7966,1.5176,3.5308t1.3925,3.4008q.857,2.1438,1.6539,4.2476.8019,2.1057,1.5722,4.1767c.5171,1.3819,1.03,2.7535,1.5479,4.1177s1.042,2.72,1.5815,4.0708,1.0938,2.6958,1.6734,4.0376,1.185,2.68,1.8252,4.0176,1.3154,2.6738,2.0356,4.0117,1.4858,2.6768,2.3066,4.02,1.6958,2.69,2.6363,4.0425,1.9458,2.7114,3.0258,4.0791,2.2349,2.7442,3.4742,4.1314,2.5625,2.7851,3.98,4.1972q2.4894,2.4794,5.04,4.708,2.5437,2.231,5.1094,4.2207,2.559,1.9923,5.101,3.7544,2.5357,1.7637,5.0181,3.3086,2.4756,1.5469,4.8623,2.8858c1.5869.8935,3.1367,1.72,4.6372,2.4839s2.9517,1.4643,4.3433,2.1059,2.7221,1.2241,3.9819,1.7515,2.4483.9995,3.5537,1.42,2.1294.7915,3.06,1.1143,1.7666.6,2.498.8334,1.3589.4244,1.87.5767q2.7231.8115,5.353,1.4522,2.6278.643,5.1528,1.13,2.5225.4908,4.9317.8418,2.4074.3546,4.69.586,2.2808.2351,4.4272.3642,2.1445.1318,4.1426.1753,1.9967.0462,3.8355.021,1.8376-.0226,3.5053-.1,1.6743.0747,3.523.1006,1.8464.0227,3.855-.02,2.0061-.0462,4.1635-.1748,2.1549-.1311,4.4493-.3628,2.2924-.2345,4.7138-.5855,2.4192-.3537,4.9561-.8408,2.5356-.49,5.1777-1.13,2.6412-.6431,5.3789-1.4516c.5137-.1524,1.1445-.3433,1.88-.5767s1.5752-.51,2.51-.833,1.9629-.6934,3.0742-1.1143,2.3047-.893,3.57-1.42,2.6035-1.1094,4.001-1.751,2.8564-1.3422,4.3642-2.1059,3.0645-1.59,4.6582-2.4839,3.2276-1.8545,4.8858-2.8857,3.3427-2.1329,5.041-3.3091,3.4111-2.4263,5.125-3.7544,3.43-2.7339,5.1338-4.2212,3.3965-3.0557,5.0644-4.709q2.1359-2.1174,3.9981-4.1977,1.8676-2.0809,3.49-4.1314,1.6275-2.0516,3.04-4.08,1.4179-2.0295,2.6494-4.0429,1.2363-2.0142,2.3173-4.0205,1.087-2.0068,2.0459-4.0123c.6436-1.3374,1.252-2.6762,1.835-4.018s1.14-2.687,1.6817-4.0381,1.0683-2.707,1.59-4.0713,1.0361-2.7358,1.5566-4.1177,1.043-2.7734,1.5811-4.1772,1.0889-2.8189,1.6631-4.2481q.6708-1.6669,1.4013-3.4013t1.5264-3.5313q.7955-1.7965,1.6582-3.6538t1.7969-3.769q.9331-1.9124,1.9394-3.8765t2.0889-3.9766q1.081-2.012,2.2412-4.0678t2.3985-4.1509q1.2392-2.0955,2.5586-4.2261t2.7207-4.292q1.4018-2.1606,2.8867-4.3486t3.0517-4.396q1.5675-2.2083,3.2188-4.4336t3.3847-4.4614q1.733-2.2354,3.5489-4.4781,1.8163-2.2411,3.7129-4.4834t3.872-4.478a1.8377,1.8377,0,0,0-.1582-2.3218A2.9338,2.9338,0,0,0,436.5059,207.4194Z" transform="translate(-125.1371 -94.5701)"/></g><g id="cup-outer-shadow"><path class="cls-2" d="M351.1545,316.9319c8.7442-11.4586,8.0309-14.114,31.6434-48.1529,11.1937-16.1364,17.237-24.6767,26.5987-34.3949a171.7728,171.7728,0,0,1,28.9815-24.052c-2.1986,2.5636-5.1005,6.0215-8.4145,10.19-3.18,4-7.5487,9.4954-12.3746,16.54a225.68,225.68,0,0,0-14.2531,23.8734c-3.5153,6.8083-5.8858,12.4284-10.6268,23.6686-7.6357,18.1029-8.1486,21.1921-12.6074,28.4551a88.8623,88.8623,0,0,1-13.1777,16.4521A114.58,114.58,0,0,1,325.08,356.1525a117.9121,117.9121,0,0,1-32.14,6.8945,190.8579,190.8579,0,0,0,37.457-24.9387C336.2981,333.0662,343.58,326.8577,351.1545,316.9319Z" transform="translate(-125.1371 -94.5701)"/></g><g id="top"><path id="toppart" class="cls-3" d="M198.15,218.7132c17.1025,1.3971,44.98,3.2341,80.9087,3.3414,39.15.1168,70.0685-1.8733,90.5615-3.6052,40.5989-3.4312,68.4876-5.7881,68.5825-9.7118.16-6.6192-78.7979-16.98-158.05-16.7732-76.7064.2-153.4142,10.3-153.2557,16.7982C126.9983,212.9005,158.269,215.4552,198.15,218.7132Z" transform="translate(-125.1371 -94.5701)"/></g><g id="Snake"><g id="Body"><g id="middle"><path class="cls-4" d="M238.7974,564.5081l17.7036-32.9588a142.0169,142.0169,0,0,1,19.2879-8.3819c11.066-3.8648,15.202-3.8278,31.7887-8.2936,13.9822-3.7646,21.0891-5.73,26.764-9.8045,3.8734-2.781,12.8418-9.22,15.969-21.2919.3873-1.4952,2.8807-11.68-1.59-21.8287-6.0211-13.67-22.4712-22.2671-41.1435-21.2373v31.8878A339.7662,339.7662,0,0,0,266.74,482.7128c-14.1065,4.44-18.1823,6.7435-20.2273,7.9845-5.7477,3.4879-24.8434,15.0761-26.6149,36.1962-.0779.9286-1.25,18.5665,11.234,31.5084A37.9029,37.9029,0,0,0,238.7974,564.5081Z" transform="translate(-125.1371 -94.5701)"/></g><g id="bottom"><path class="cls-4" d="M361.42,564.3533c-6.3308-6.3047-12.9-8.9146-20.3537-11.881a93.4993,93.4993,0,0,0-22.855-5.8726c6.2149,10.7754,12.3533,22.1427,18.3223,34.1107q2.9151,5.8446,5.6427,11.6053c-2.4515,3.0667-7.3149,5.6938-11.5008,7.3926-33.0763,12.2724-78.3158,18.36-121.6664,20.0526-48.5131,1.8943-73.0353-4.3819-73.5217-1.3606-.51,3.1682,25.8818,10.5689,46.9508,14.33a296.7014,296.7014,0,0,0,47.1081,4.15c7.2366.1087,28.2772-.0663,59.0225-4.0106,59.3581-7.6153,71.2808-19.66,76.0673-25.8685,2.7672-3.59,8.9344-11.83,7.97-22.3727C371.6874,574.5782,364.7676,567.687,361.42,564.3533Z" transform="translate(-125.1371 -94.5701)"/></g><g id="top-2" data-name="top"><path class="cls-4" d="M489.2283,161.6655c-30.8831-68.4344-132.8054-90.6908-187.321-37.6493-.15.0955-.3032.1822-.4508.2838-5.4755,3.7706-13.7075,11.3239-15.5079,17.9539-3.7165,13.6857.7749,25.3348-.0908,31.7278-.5543,4.0936-7.1342,12.5459-4.659,15.8532a3.8747,3.8747,0,0,0,2.2482,1.2285,66.63,66.63,0,0,1-10.3345,7.5017l5.8249-2.0784-.7141,4.2431,6.8816-9.4c5.3461.4888,13.7733-1.4948,13.7733-1.4948a128.668,128.668,0,0,0,30.1745-25.7279c7.7658-9.06,8.5867-12.6261,12.3908-16.4094,17.9749-17.8768,73.4693-11.672,100.4656,19.7583,38.4039,44.7113-.123,118.0476-4.0108,125.21-19.0331,35.0654-55.0609,55.3309-63.8754,60.1826a118.5452,118.5452,0,0,1-11.4513,5.6056c-18.5656,7.8638-33.3912,8.8438-54.994,10-16.446.8806-33.0553,1.2954-48.5479,4.3476-17.8128,3.5092-34.1486,10.507-47.0548,25.7272-19.2226,27.547,9.7929,58.2862,35.6354,65.8287,3.69,1.1948,7.4619,2.1915,11.2863,3.0659l.061-43.3584.0084-5.9745a94.8106,94.8106,0,0,1,13.981-3.2057c11.8629-.9844,23.3781-1.6851,34.6306-2.5622,38.5784-3.0071,74.04-8.1085,109.59-34.0064,38.3752-27.9568,58.7178-62.1358,65.29-76.1331C491.65,282.6086,516.7116,222.5662,489.2283,161.6655Z" transform="translate(-125.1371 -94.5701)"/></g><path id="top-3" data-name="top" class="cls-4" d="M489.2283,161.6655c-30.8831-68.4344-132.8054-90.6908-187.321-37.6493-.15.0955-.3032.1822-.4508.2838-5.4755,3.7706-13.7075,11.3239-15.5079,17.9539-3.7165,13.6857.7749,25.3348-.0908,31.7278-.5543,4.0936-7.1342,12.5459-4.659,15.8532a3.8747,3.8747,0,0,0,2.2482,1.2285,66.63,66.63,0,0,1-10.3345,7.5017l5.8249-2.0784-.7141,4.2431,6.8816-9.4c5.3461.4888,13.7733-1.4948,13.7733-1.4948a128.668,128.668,0,0,0,30.1745-25.7279c7.7658-9.06,8.5867-12.6261,12.3908-16.4094,17.9749-17.8768,73.4693-11.672,100.4656,19.7583,38.4039,44.7113-.123,118.0476-4.0108,125.21-19.0331,35.0654-55.0609,55.3309-63.8754,60.1826a118.5452,118.5452,0,0,1-11.4513,5.6056c-18.5656,7.8638-33.3912,8.8438-54.994,10-16.446.8806-33.0553,1.2954-48.5479,4.3476-17.8128,3.5092-34.1486,10.507-47.0548,25.7272-19.2226,27.547,9.7929,58.2862,35.6354,65.8287,3.69,1.1948,7.4619,2.1915,11.2863,3.0659l.061-43.3584.0084-5.9745a94.8106,94.8106,0,0,1,13.981-3.2057c11.8629-.9844,23.3781-1.6851,34.6306-2.5622,38.5784-3.0071,74.04-8.1085,109.59-34.0064,38.3752-27.9568,58.7178-62.1358,65.29-76.1331C491.65,282.6086,516.7116,222.5662,489.2283,161.6655Z" transform="translate(-125.1371 -94.5701)"/></g></g><g id="Eye"><g id="Eye-2" data-name="Eye"><path class="cls-5" d="M299.6783,143.7165l-1.82,2.1206c-.2811.3275-.5137.7439-.1919,1.1393a1.7229,1.7229,0,0,0,1.4552.391l2.889-.1623a2.889,2.889,0,0,0,1.362-.4777c.2532-.183.6655-.497.662-.8456l-.046-4.554a.76.76,0,0,0-.3973-.7551,2.0543,2.0543,0,0,0-1.2066-.19,2.9827,2.9827,0,0,0-1.362.4776c-.2532.1831-.6655.4971-.662.8456l.046,4.554,2.024-1.3232-2.889.1623,1.2633,1.53,1.82-2.1206a.999.999,0,0,0,.3307-.8793.9776.9776,0,0,0-.726-.596,2.6527,2.6527,0,0,0-1.3576.0362,2.5,2.5,0,0,0-1.1938.6474Z" transform="translate(-125.1371 -94.5701)"/></g></g></svg>