<?xml version="1.0" encoding="utf-8"?>
<!-- Generator: Adobe Illustrator 25.2.3, SVG Export Plug-In . SVG Version: 6.00 Build 0)  -->
<svg version="1.1" id="Layer_1" xmlns="http://www.w3.org/2000/svg" xmlns:xlink="http://www.w3.org/1999/xlink" x="0px" y="0px"
	 viewBox="0 0 376.6 544.6" style="enable-background:new 0 0 376.6 544.6;" xml:space="preserve">
<style type="text/css">
	.st0{fill:#E6E7E8;stroke:#BCBEC0;stroke-miterlimit:10;}
	.st1{fill:#BCBEC0;}
	.st2{fill:url(#toppart_1_);stroke:#BCBEC0;stroke-miterlimit:10;}
	.st3{fill:#464547;}
	.st4{fill:#FFFFFF;}
</style>
<g id="Stem">
	<path class="st0" d="M182.4,385.7c-15.8,3.5-32.9,3.3-48.7,6l0-22.4l0.1-51.4l0-7.1c4.5-1.7,9.2-2.9,14-3.8c11.9-1.2,23.4-2,34.6-3
		L182.4,385.7L182.4,385.7z M231.8,521.8c-0.5-0.9-1.3-2.4-2.2-4.2l-71.3,8.9c-11.2-1.4-22.5-2.8-33.7-4.2
		c20.4,2.7,70.7,7,90.2-20.8c0.8-1.2,1.6-2.5,2.3-3.8c-2.7-5.6-4.9-10.2-6.5-13.2c-5.9-11.5-11.3-21.1-19.3-36l-0.7-1.3l-8-15v-11.9
		c-8.6,1-17.7,2.9-27.5,4.2c-6.7,0.9-15.2,1.5-21.3,4.6l0,3.5l-1.8,3.3l-16.1,29.9l-32,59.5c0.1,0,0.2,0,0.4,0
		c-2.2,4.2-5.4,10.8-5.4,13.8l0,0c0,1.8,12,2.8,21.6,3.6c8.9,0.7,27.7,1.7,67.9,1.2l0,0c27.5,0.1,41.7-0.7,49.1-1.3
		c9.7-0.8,21.6-1.8,21.6-3.6l0,0C239.1,534.8,232.9,523.8,231.8,521.8z"/>
</g>
<g id="Shadows">
	<path id="_1" class="st1" d="M108.6,541.4c-1.2-0.1-7.2-0.6-7.2-0.6h0h0h0c-3.7-0.5-7.9-1.3-10.5-2.7l132.3-33.6l11.2,21.9
		c-5,2-10.2,3.8-15.4,5.3c-4.7,1.3-9.5,2.4-14.3,3.2c-15.1,2.7-45.6,8.8-72.2,7.6C116.5,541.9,110.5,541.6,108.6,541.4z"/>
	<path class="st1" d="M182.4,273.9c0-1,0.1-2,0.4-2.9c1.5-5.1,6.4-6.3,6.3-7.6c-0.3-4.6-64.5-4.5-64.8,0.7c-0.1,1.5,5.5,2.3,8.2,8
		c0.9,2,1.3,4.1,1.3,6.2L182.4,273.9z"/>
	<path id="_2" class="st1" d="M182.4,431.4l0-27.1L129,414.6l0.6,27c6.6-2.3,13.3-4.3,20-5.8C160.4,433.3,171.4,431.8,182.4,431.4z"
		/>
	<path id="_3" class="st1" d="M134,329.4c4.5-1.1,9.1-2,13.7-2.6c5.3-0.7,8.5-0.8,19.3-1.3c3.6-0.2,8.9-0.5,15.4-0.9v-25.1
		l-48.5,4.7C133.9,312.6,134,321,134,329.4z"/>
</g>
<g id="outer-cup">
	<path class="st0" d="M311.4,112.8c-1.5,0.1-3,0.2-4.5,0.3c-1.5,0.1-3,0.2-4.5,0.3c-1.5,0.1-3.1,0.2-4.6,0.3
		c-1.5,0.1-3.1,0.2-4.6,0.3c-1.6,0.1-3.1,0.2-4.7,0.3c-1.6,0.1-3.1,0.2-4.7,0.3c-1.6,0.1-3.2,0.2-4.8,0.3c-1.6,0.1-3.2,0.2-4.8,0.3
		c-1.6,0.1-3.2,0.2-4.9,0.2c-1.6,0.1-3.3,0.2-4.9,0.2c-1.6,0.1-3.3,0.2-4.9,0.2s-3.3,0.1-5,0.2c-1.7,0.1-3.3,0.1-5,0.2
		s-3.4,0.1-5.1,0.2c-1.7,0.1-3.4,0.1-5.1,0.2c-1.7,0.1-3.4,0.1-5.2,0.2c-1.7,0.1-3.5,0.1-5.2,0.2c-1.6,0-3.3,0.1-4.9,0.1
		c-1.6,0-3.2,0.1-4.9,0.1c-1.6,0-3.2,0.1-4.8,0.1s-3.2,0.1-4.8,0.1c-1.6,0-3.2,0.1-4.8,0.1c-1.6,0-3.2,0-4.8,0.1
		c-1.6,0-3.2,0-4.7,0.1c-1.6,0-3.2,0-4.7,0c-1.6,0-3.1,0-4.7,0c-1.6,0-3.1,0-4.7,0c-1.6,0-3.1,0-4.6,0c-1.5,0-3.1,0-4.6,0
		c-1.5,0-3.1,0-4.6,0c-1.5,0-3,0-4.6,0s-3,0-4.5,0l-0.2,0c-0.3,0-0.6,0-0.9,0s-0.6,0-0.9,0l-0.2,0c-1.5,0-3,0-4.5,0
		c-1.5,0-3,0-4.5,0c-1.5,0-3,0-4.6,0s-3.1,0-4.6,0c-1.5,0-3.1,0-4.6,0s-3.1,0-4.6,0c-1.6,0-3.1,0-4.7,0c-1.6,0-3.1,0-4.7,0
		c-1.6,0-3.1,0-4.7-0.1c-1.6,0-3.2,0-4.7-0.1c-1.6,0-3.2-0.1-4.8-0.1c-1.6,0-3.2-0.1-4.8-0.1c-1.6,0-3.2-0.1-4.8-0.1
		c-1.6,0-3.2-0.1-4.8-0.1c-1.6,0-3.2-0.1-4.9-0.1c-1.7,0-3.5-0.1-5.2-0.2c-1.7-0.1-3.4-0.1-5.1-0.2c-1.7-0.1-3.4-0.1-5.1-0.2
		c-1.7-0.1-3.4-0.1-5-0.2c-1.7-0.1-3.3-0.1-5-0.2c-1.7-0.1-3.3-0.1-5-0.2c-1.6-0.1-3.3-0.1-4.9-0.2c-1.6-0.1-3.3-0.2-4.9-0.2
		c-1.6-0.1-3.2-0.2-4.8-0.2s-3.2-0.2-4.8-0.3c-1.6-0.1-3.2-0.2-4.8-0.3s-3.1-0.2-4.7-0.3c-1.6-0.1-3.1-0.2-4.7-0.3
		c-1.5-0.1-3.1-0.2-4.6-0.3c-1.5-0.1-3.1-0.2-4.6-0.3s-3-0.2-4.5-0.3c-1.5-0.1-3-0.2-4.5-0.3c-1,0-1.9,0.5-2.4,1.3
		c-0.6,0.6-0.7,1.6-0.2,2.3c1.3,1.5,2.6,3,3.8,4.5s2.5,3,3.7,4.5c1.2,1.5,2.4,3,3.5,4.5s2.3,3,3.4,4.5c1.1,1.5,2.2,3,3.2,4.4
		c1,1.5,2,2.9,3,4.4c1,1.5,1.9,2.9,2.9,4.3s1.8,2.9,2.7,4.3c0.9,1.4,1.7,2.8,2.5,4.2s1.6,2.8,2.4,4.2c0.8,1.4,1.5,2.7,2.2,4.1
		c0.7,1.3,1.4,2.7,2.1,4s1.3,2.6,1.9,3.9c0.6,1.3,1.2,2.5,1.8,3.8s1.1,2.5,1.6,3.7c0.5,1.2,1,2.4,1.5,3.5c0.5,1.2,0.9,2.3,1.4,3.4
		c0.6,1.4,1.1,2.8,1.7,4.2c0.5,1.4,1.1,2.8,1.6,4.2c0.5,1.4,1,2.8,1.5,4.1s1,2.7,1.6,4.1s1.1,2.7,1.7,4s1.2,2.7,1.8,4s1.3,2.7,2,4
		s1.5,2.7,2.3,4s1.7,2.7,2.6,4s1.9,2.7,3,4.1s2.2,2.7,3.5,4.1s2.6,2.8,4,4.2c1.7,1.7,3.3,3.2,5,4.7c1.7,1.5,3.4,2.9,5.1,4.2
		c1.7,1.3,3.4,2.6,5.1,3.8c1.7,1.2,3.4,2.3,5,3.3c1.7,1,3.3,2,4.9,2.9c1.6,0.9,3.1,1.7,4.6,2.5s3,1.5,4.3,2.1s2.7,1.2,4,1.8
		s2.4,1,3.6,1.4s2.1,0.8,3.1,1.1s1.8,0.6,2.5,0.8s1.4,0.4,1.9,0.6c1.8,0.5,3.6,1,5.4,1.5c1.8,0.4,3.5,0.8,5.2,1.1
		c1.7,0.3,3.3,0.6,4.9,0.8c1.6,0.2,3.2,0.4,4.7,0.6c1.5,0.2,3,0.3,4.4,0.4c1.4,0.1,2.8,0.1,4.1,0.2c1.3,0,2.6,0,3.8,0
		c1.2,0,2.4,0,3.5-0.1c1.1,0,2.3,0.1,3.5,0.1c1.2,0,2.5,0,3.9,0c1.3,0,2.7-0.1,4.2-0.2c1.4-0.1,2.9-0.2,4.4-0.4
		c1.5-0.2,3.1-0.4,4.7-0.6c1.6-0.2,3.3-0.5,5-0.8c1.7-0.3,3.4-0.7,5.2-1.1c1.8-0.4,3.6-0.9,5.4-1.5c0.5-0.2,1.1-0.3,1.9-0.6
		s1.6-0.5,2.5-0.8s2-0.7,3.1-1.1s2.3-0.9,3.6-1.4s2.6-1.1,4-1.8s2.9-1.3,4.4-2.1s3.1-1.6,4.7-2.5s3.2-1.9,4.9-2.9s3.3-2.1,5-3.3
		s3.4-2.4,5.1-3.8s3.4-2.7,5.1-4.2s3.4-3.1,5.1-4.7c1.4-1.4,2.8-2.8,4-4.2c1.2-1.4,2.4-2.8,3.5-4.1c1.1-1.4,2.1-2.7,3-4.1
		c0.9-1.4,1.8-2.7,2.6-4c0.8-1.3,1.6-2.7,2.3-4c0.7-1.3,1.4-2.7,2-4c0.6-1.3,1.3-2.7,1.8-4c0.6-1.3,1.1-2.7,1.7-4s1.1-2.7,1.6-4.1
		c0.5-1.4,1-2.7,1.6-4.1s1-2.8,1.6-4.2s1.1-2.8,1.7-4.2c0.4-1.1,0.9-2.2,1.4-3.4c0.5-1.2,1-2.3,1.5-3.5c0.5-1.2,1.1-2.4,1.7-3.7
		c0.6-1.2,1.2-2.5,1.8-3.8c0.6-1.3,1.3-2.6,1.9-3.9c0.7-1.3,1.4-2.6,2.1-4c0.7-1.3,1.5-2.7,2.2-4.1c0.8-1.4,1.6-2.8,2.4-4.2
		c0.8-1.4,1.7-2.8,2.6-4.2c0.9-1.4,1.8-2.9,2.7-4.3c0.9-1.4,1.9-2.9,2.9-4.3s2-2.9,3.1-4.4c1-1.5,2.1-3,3.2-4.4s2.2-3,3.4-4.5
		c1.2-1.5,2.3-3,3.5-4.5c1.2-1.5,2.4-3,3.7-4.5c1.3-1.5,2.6-3,3.9-4.5c0.5-0.7,0.4-1.7-0.2-2.3C313.3,113.3,312.3,112.8,311.4,112.8
		z"/>
</g>
<g id="cup-outer-shadow">
	<path class="st1" d="M226,222.4c8.7-11.5,8-14.1,31.6-48.2c11.2-16.1,17.2-24.7,26.6-34.4c8.7-9.1,18.5-17.1,29-24.1
		c-2.2,2.6-5.1,6-8.4,10.2c-3.2,4-7.5,9.5-12.4,16.5c-5.2,7.7-10,15.6-14.3,23.9c-3.5,6.8-5.9,12.4-10.6,23.7
		c-7.6,18.1-8.1,21.2-12.6,28.5c-3.7,6-8.1,11.5-13.2,16.5c-11.8,11.8-26.1,20.9-41.8,26.6c-10.3,3.8-21.2,6.1-32.1,6.9
		c13.4-6.8,26-15.2,37.5-24.9C211.2,238.5,218.4,232.3,226,222.4z"/>
</g>
<g id="top">
	
		<radialGradient id="toppart_1_" cx="282.5498" cy="-216.7496" r="142.2856" gradientTransform="matrix(1 0 0 -0.1693 -125.1371 86.8423)" gradientUnits="userSpaceOnUse">
		<stop  offset="0.233" style="stop-color:#2A2771"/>
		<stop  offset="0.9525" style="stop-color:#2450A3;stop-opacity:0.96"/>
	</radialGradient>
	<path id="toppart" class="st2" d="M73,124.1c17.1,1.4,45,3.2,80.9,3.3c39.1,0.1,70.1-1.9,90.6-3.6c40.6-3.4,68.5-5.8,68.6-9.7
		c0.2-6.6-78.8-17-158.1-16.8C78.3,97.6,1.6,107.7,1.8,114.2C1.9,118.3,33.1,120.9,73,124.1z"/>
</g>
<g id="Snake">
	<g id="Body">
		<g id="middle">
			<path class="st3" d="M113.7,469.9l17.7-33c6.2-3.3,12.7-6.1,19.3-8.4c11.1-3.9,15.2-3.8,31.8-8.3c14-3.8,21.1-5.7,26.8-9.8
				c3.9-2.8,12.8-9.2,16-21.3c0.4-1.5,2.9-11.7-1.6-21.8c-6-13.7-22.5-22.3-41.1-21.2V378c-13.8,2.5-27.4,5.9-40.8,10.1
				c-14.1,4.4-18.2,6.7-20.2,8c-5.7,3.5-24.8,15.1-26.6,36.2c-0.1,0.9-1.2,18.6,11.2,31.5C108.3,466.2,110.9,468.2,113.7,469.9z"/>
		</g>
		<g id="bottom">
			<path class="st3" d="M236.3,469.8c-6.3-6.3-12.9-8.9-20.4-11.9c-7.3-2.9-15-4.9-22.9-5.9c6.2,10.8,12.4,22.1,18.3,34.1
				c1.9,3.9,3.8,7.8,5.6,11.6c-2.5,3.1-7.3,5.7-11.5,7.4c-33.1,12.3-78.3,18.4-121.7,20.1c-48.5,1.9-73-4.4-73.5-1.4
				c-0.5,3.2,25.9,10.6,47,14.3c15.6,2.6,31.3,4,47.1,4.2c7.2,0.1,28.3-0.1,59-4c59.4-7.6,71.3-19.7,76.1-25.9
				c2.8-3.6,8.9-11.8,8-22.4C246.6,480,239.6,473.1,236.3,469.8z"/>
		</g>
		<g id="top-2">
			<path class="st3" d="M364.1,67.1C333.2-1.3,231.3-23.6,176.8,29.4c-0.1,0.1-0.3,0.2-0.5,0.3c-5.5,3.8-13.7,11.3-15.5,18
				c-3.7,13.7,0.8,25.3-0.1,31.7c-0.6,4.1-7.1,12.5-4.7,15.9c0.6,0.7,1.4,1.1,2.2,1.2c-3.2,2.8-6.7,5.3-10.3,7.5l5.8-2.1l-0.7,4.2
				l6.9-9.4c5.3,0.5,13.8-1.5,13.8-1.5c11.3-7,21.5-15.6,30.2-25.7c7.8-9.1,8.6-12.6,12.4-16.4c18-17.9,73.5-11.7,100.5,19.8
				c38.4,44.7-0.1,118-4,125.2c-19,35.1-55.1,55.3-63.9,60.2c-3.7,2.1-7.5,3.9-11.5,5.6c-18.6,7.9-33.4,8.8-55,10
				c-16.4,0.9-33.1,1.3-48.5,4.3c-17.8,3.5-34.1,10.5-47.1,25.7c-19.2,27.5,9.8,58.3,35.6,65.8c3.7,1.2,7.5,2.2,11.3,3.1l0.1-43.4
				l0-6c4.6-1.4,9.2-2.5,14-3.2c11.9-1,23.4-1.7,34.6-2.6c38.6-3,74-8.1,109.6-34c38.4-28,58.7-62.1,65.3-76.1
				C366.5,188,391.6,128,364.1,67.1z"/>
		</g>
		<path id="top-3" class="st3" d="M364.1,67.1C333.2-1.3,231.3-23.6,176.8,29.4c-0.1,0.1-0.3,0.2-0.5,0.3
			c-5.5,3.8-13.7,11.3-15.5,18c-3.7,13.7,0.8,25.3-0.1,31.7c-0.6,4.1-7.1,12.5-4.7,15.9c0.6,0.7,1.4,1.1,2.2,1.2
			c-3.2,2.8-6.7,5.3-10.3,7.5l5.8-2.1l-0.7,4.2l6.9-9.4c5.3,0.5,13.8-1.5,13.8-1.5c11.3-7,21.5-15.6,30.2-25.7
			c7.8-9.1,8.6-12.6,12.4-16.4c18-17.9,73.5-11.7,100.5,19.8c38.4,44.7-0.1,118-4,125.2c-19,35.1-55.1,55.3-63.9,60.2
			c-3.7,2.1-7.5,3.9-11.5,5.6c-18.6,7.9-33.4,8.8-55,10c-16.4,0.9-33.1,1.3-48.5,4.3c-17.8,3.5-34.1,10.5-47.1,25.7
			c-19.2,27.5,9.8,58.3,35.6,65.8c3.7,1.2,7.5,2.2,11.3,3.1l0.1-43.4l0-6c4.6-1.4,9.2-2.5,14-3.2c11.9-1,23.4-1.7,34.6-2.6
			c38.6-3,74-8.1,109.6-34c38.4-28,58.7-62.1,65.3-76.1C366.5,188,391.6,128,364.1,67.1z"/>
	</g>
</g>
<g id="Eye">
	<g id="Eye-2">
		<path class="st4" d="M174.5,49.1l-1.8,2.1c-0.3,0.3-0.5,0.7-0.2,1.1c0.4,0.3,0.9,0.5,1.5,0.4l2.9-0.2c0.5,0,1-0.2,1.4-0.5
			c0.3-0.2,0.7-0.5,0.7-0.8l0-4.6c0-0.3-0.1-0.6-0.4-0.8c-0.4-0.2-0.8-0.3-1.2-0.2c-0.5,0-1,0.2-1.4,0.5c-0.3,0.2-0.7,0.5-0.7,0.8
			l0,4.6l2-1.3l-2.9,0.2l1.3,1.5l1.8-2.1c0.2-0.2,0.4-0.5,0.3-0.9c-0.1-0.3-0.4-0.5-0.7-0.6c-0.4-0.1-0.9-0.1-1.4,0
			C175.3,48.6,174.9,48.8,174.5,49.1L174.5,49.1z"/>
	</g>
</g>
</svg>
