<svg xmlns="http://www.w3.org/2000/svg" width="148.97" height="148.96" viewBox="0 0 148.97 148.96">
   <g>     <path d="M39.11,149A37.11,37.11,0,0,1,12.86,85.6L85.61,12.85a37.07,37.07,0,0,1,7.71-5.91l.3-.17c.51-.29,1-.56,1.55-.82l.27-.14c.48-.24,1-.46,1.46-.68L97.27,5a37.24,37.24,0,0,1,38.29,5.56l.73.6.44.4c.47.43.93.86,1.39,1.32a37.28,37.28,0,0,1,1.93,50.4l-.45.52c-.48.54-1,1.07-1.48,1.58L65.36,138.11A36.86,36.86,0,0,1,39.11,149ZM48,59.33C30.67,76,20.09,87.06,17.26,90a31.63,31.63,0,0,0-6.42,9.37,30.88,30.88,0,0,0,50.1,34.28c3.74-3.75,7.23-7.28,10.57-10.66C78.44,116,85,109.39,91.66,103c1.86-1.79,3.79-3.58,5.7-5.32l1.44-1.3-1.89-.42A61,61,0,0,1,52.56,56.7L52,55.19Z" transform="translate(-1 -1)"/>
        <path d="M111.87,3a36.12,36.12,0,0,1,23,8.3l.72.59.42.38c.46.42.91.85,1.35,1.28a36.28,36.28,0,0,1,1.88,49.05l-.44.51c-.51.58-1,1.08-1.44,1.54L64.66,137.4a36.13,36.13,0,0,1-51.1-51.09L86.32,13.55A36.33,36.33,0,0,1,93.83,7.8l.28-.16c.5-.28,1-.55,1.51-.8h0l.24-.12c.47-.23.94-.46,1.41-.66l.22-.1.14-.06A36.07,36.07,0,0,1,111.87,3M47.27,58.61C30,75.34,19.37,86.37,16.53,89.35A32.68,32.68,0,0,0,9.93,99a31.87,31.87,0,0,0,51.72,35.39c3.74-3.74,7.21-7.25,10.56-10.65,6.93-7,13.48-13.64,20.14-20,1.88-1.81,3.79-3.59,5.68-5.31l2.88-2.59L97.13,95A60.09,60.09,0,0,1,53.5,56.37l-1.07-3-2.24,2.29-1.47,1.49-1.45,1.48M111.87,1a38.34,38.34,0,0,0-15,3.05l-.1-.23L96.4,4l.1.23L95,4.91l-.11-.22-.28.14h0l.12.22c-.54.27-1.07.56-1.59.85L93,5.68l-.17.1L93,6a38.09,38.09,0,0,0-8.07,6.15L12.15,84.9a38.12,38.12,0,0,0,53.92,53.91l72.75-72.75c.53-.53,1-1.08,1.54-1.63l.18.16h0c.1-.12.21-.24.31-.37l.14-.16-.19-.16a38.17,38.17,0,0,0-2-51.76c-.46-.46-.93-.91-1.42-1.35l.17-.18c-.4-.36-.8-.71-1.21-1l-.16.19A38,38,0,0,0,111.87,1ZM39.11,141.72A29.92,29.92,0,0,1,11.76,99.81,30.65,30.65,0,0,1,18,90.73c5.75-6,16.48-17,30.7-30.7l2.94-3A62,62,0,0,0,96.69,96.91c-1.12,1-3.2,2.91-5.73,5.34C81.14,111.7,71.88,121.31,60.24,133a29.7,29.7,0,0,1-21.13,8.74Z" transform="translate(-1 -1)"/>
  </g>
</svg>
