<svg xmlns="http://www.w3.org/2000/svg" width="148.97" height="148.96" viewBox="0 0 148.97 148.96">
        <path fill="var(--svg-fill)" d="M39.11,149A37.11,37.11,0,0,1,12.86,85.6L85.61,12.85a37.07,37.07,0,0,1,7.71-5.91l.3-.17c.51-.29,1-.56,1.55-.82l.27-.14c.48-.24,1-.46,1.46-.68L97.27,5a37.24,37.24,0,0,1,38.29,5.56l.73.6.44.4c.47.43.93.86,1.39,1.32a37.28,37.28,0,0,1,1.93,50.4l-.45.52c-.48.54-1,1.07-1.48,1.58L65.36,138.11A36.86,36.86,0,0,1,39.11,149ZM49.82,61.6l-31,30.6A28.12,28.12,0,0,0,58.59,132l31.15-31.72-.79-.8-.14-.08a99,99,0,0,1-20.14-15.1l-.47-.45L67,82.63c-.39-.4-.77-.81-1.14-1.21L65.46,81l-.38-.4c-.23-.25-.47-.49-.7-.75a98.45,98.45,0,0,1-13-18l-.08-.14L50.51,61Z" transform="translate(-1 -1)"/>
        <path fill="var(--svg-fill)" d="M111.87,3a36.12,36.12,0,0,1,23,8.3l.72.59.42.38c.46.42.91.85,1.35,1.28a36.28,36.28,0,0,1,1.88,49.05l-.44.51c-.51.58-1,1.08-1.44,1.54L64.66,137.4a36.13,36.13,0,0,1-51.1-51.09L86.32,13.55A36.33,36.33,0,0,1,93.83,7.8l.28-.16c.5-.28,1-.55,1.51-.8h0l.24-.12c.47-.23.94-.46,1.41-.66l.22-.1.14-.06A36.07,36.07,0,0,1,111.87,3M38.71,141.19a29,29,0,0,0,20.6-8.53l17.43-17.75,13-13.25,1.37-1.43-1.4-1.41-.19-.19-.24-.13a98,98,0,0,1-19.94-15l-.46-.44c-.4-.38-.81-.77-1.2-1.17l-1.1-1.17-.41-.45-.38-.4c-.22-.22-.43-.45-.64-.68l0,0,0-.06A97.68,97.68,0,0,1,52.28,61.35l-.15-.26-.2-.19-1.4-1.41-1.41,1.4L38.74,71.13,18.12,91.5a29.11,29.11,0,0,0,20.59,49.69M111.87,1a38.34,38.34,0,0,0-15,3.05l-.1-.23L96.4,4l.1.23L95,4.91l-.11-.22-.28.14h0l.12.22c-.54.27-1.07.56-1.59.85L93,5.68l-.17.1L93,6a38.09,38.09,0,0,0-8.07,6.15L12.15,84.9a38.12,38.12,0,0,0,53.92,53.91l72.75-72.75c.53-.53,1-1.08,1.54-1.63l.18.16h0c.1-.12.21-.24.31-.37l.14-.16-.19-.16a38.17,38.17,0,0,0-2-51.76c-.46-.46-.93-.91-1.42-1.35l.17-.18c-.4-.36-.8-.71-1.21-1l-.16.19A38,38,0,0,0,111.87,1ZM38.71,139.19A27.12,27.12,0,0,1,19.53,92.92l31-30.61,0,0a99.2,99.2,0,0,0,13.1,18.19h0c.36.39.73.77,1.09,1.15.51.55,1,1.11,1.54,1.65S67.41,84.43,68,85a99.43,99.43,0,0,0,20.35,15.26l0,0q-15.24,15.49-30.46,31a26.93,26.93,0,0,1-19.17,7.93Z" transform="translate(-1 -1)"/>
</svg>
