<svg xmlns="http://www.w3.org/2000/svg" viewBox="0 0 133 119.8"><g id="Layer_2" data-name="Layer 2"><g id="capsule"><path id="pill-shell" fill="currentColor" d="M120.69,55.81,85.79,84.14l-34.43,28A32.21,32.21,0,0,1,28.44,119,30.62,30.62,0,0,1,7.51,107.79h0A31.15,31.15,0,0,1,12.32,64L81.64,7.71A31.18,31.18,0,0,1,125.5,12h0A31.17,31.17,0,0,1,120.69,55.81Z" /><g id="bottom-pill" ><path fill="white" d="M49.81,43.39l-31,25.39C7.94,77.55,5.69,92.86,13.83,103c3.22,2.73,11.06,8.47,21.14,7.24a25.55,25.55,0,0,0,13.83-6L78.28,80.25A86.14,86.14,0,0,1,63.2,65.88,86.42,86.42,0,0,1,49.81,43.39Z"/></g></g></g></svg>
