<svg xmlns="http://www.w3.org/2000/svg" viewBox="0 0 103.61 92.96"><defs><style>.active{fill:currentColor;stroke:#fff;stroke-linecap:round;stroke-linejoin:round;}.white-space{fill:#fff;}.inactive-space{fill:currentColor;}</style></defs><g><g id="capsule"><path id="pill-shell" class="active" d="M94,43.76,66.84,65.58,40,87.11a24.77,24.77,0,0,1-17.86,5.21A24.24,24.24,0,0,1,5.85,83.38h0A24.31,24.31,0,0,1,9.59,49.21l54-43.36A24.31,24.31,0,0,1,97.76,9.59h0A24.31,24.31,0,0,1,94,43.76Z"/><g id="sprinkle-space"><path id="white-space" class="white-space" d="M42.21,30.26l24.72-19.4C75.49,4,87.8,5.09,94.42,13.34c1.62,3,4.86,10.21,2.3,17.85a19.43,19.43,0,0,1-6.91,9.66L66.47,59.38a73,73,0,0,1-13-11.7A72.84,72.84,0,0,1,42.21,30.26Z"/><g id="lower-filled-shell"><path class="inactive-space" d="M24.85,85.12c-5.92,0-10.78-3-13.85-5.58A16.86,16.86,0,0,1,7.64,66.47,19.76,19.76,0,0,1,15,53.93L38.6,34.52A71.52,71.52,0,0,0,48.94,51.35a72.3,72.3,0,0,0,11,10.77L37.44,80.4A19.45,19.45,0,0,1,27,85a18.64,18.64,0,0,1-2.1.13Z"/><path class="white-space" d="M38,36.92A73.25,73.25,0,0,0,47.78,52.3a72.6,72.6,0,0,0,9.78,9.82L51,67.49,36.49,79.23a17.74,17.74,0,0,1-9.73,4.27,15.31,15.31,0,0,1-1.91.12c-5.39,0-9.88-2.74-12.77-5.13-5.36-6.94-3.69-17.38,3.83-23.41L38,36.92m1.16-4.83L14,52.76C5.13,59.89,3.3,72.35,9.92,80.59c2.38,2,7.83,6,14.93,6a19.92,19.92,0,0,0,2.28-.14,20.81,20.81,0,0,0,11.25-4.92l24-19.48a70.06,70.06,0,0,1-23.17-30Z"/></g><g class="active" id="sprinkles"><circle cx="93.6" cy="23.23" r="3.44"/><circle cx="55.37" cy="42.33" r="3.44"/><circle cx="53.92" cy="27.65" r="3.44"/><circle cx="50.71" cy="34.09" r="3.44"/><circle cx="66.66" cy="33.3" r="3.44"/><circle cx="63.45" cy="39.74" r="3.44"/><circle cx="59.2" cy="33.83" r="3.44"/><circle cx="65.57" cy="18.9" r="3.44"/><circle cx="62.36" cy="25.34" r="3.44"/><circle cx="78.31" cy="24.55" r="3.44"/><circle cx="75.1" cy="30.99" r="3.44"/><circle cx="70.85" cy="25.08" r="3.44"/><circle cx="73.64" cy="16.31" r="3.44"/><circle cx="86.39" cy="21.96" r="3.44"/><circle cx="82.14" cy="16.04" r="3.44"/><circle cx="68.9" cy="47.44" r="3.44"/><circle cx="65.69" cy="53.88" r="3.44"/><circle cx="61.44" cy="47.97" r="3.44"/><circle cx="80.19" cy="38.41" r="3.44"/><circle cx="76.98" cy="44.85" r="3.44"/><circle cx="72.73" cy="38.94" r="3.44"/><circle cx="91.84" cy="29.66" r="3.44"/><circle cx="88.63" cy="36.1" r="3.44"/><circle cx="84.38" cy="30.19" r="3.44"/><circle cx="90.34" cy="15.37" r="3.44"/><circle cx="77.37" cy="10.39" r="3.44"/></g></g></g></g></svg>