<svg xmlns="http://www.w3.org/2000/svg" width="187.41" height="36.25" viewBox="0 0 187.41 36.25">
  <defs>
    <style>
      .cls-1 {
        fill: #3e26ed;
      }
    </style>
  </defs>
  <g id="Layer_2" data-name="Layer 2">
    <g id="Layer_1-2" data-name="Layer 1">
      <path class="cls-1" d="M185.48,34.13a8.38,8.38,0,0,0,1.93-5.74c0-.16,0-.27,0-.33V8.27a9.85,9.85,0,0,0-1.8-5.61A6.35,6.35,0,0,0,181.1,0H50.7C35.9.1,21.1.1,6.3.1A5.84,5.84,0,0,0,1.8,2.76,10.25,10.25,0,0,0,0,8.27V28.39a8.3,8.3,0,0,0,1.41,4.46,9,9,0,0,0,5.37,3.39H179.51A8.1,8.1,0,0,0,185.48,34.13Z"/>
    </g>
  </g>
</svg>
