<svg xmlns="http://www.w3.org/2000/svg" viewBox="0 0 353.01 539.12"><defs><style>.cls-1{fill:#263468;}</style></defs><g id="Layer_2" data-name="Layer 2"><g id="Snake"><g id="Snake-2" data-name="Snake"><g id="Body"><g id="middle"><path class="cls-1" d="M104.32,467.73l17.7-33a142.44,142.44,0,0,1,19.29-8.38c11.06-3.87,15.2-3.83,31.79-8.29,14-3.77,21.09-5.73,26.76-9.81,3.87-2.78,12.84-9.22,16-21.29.39-1.5,2.88-11.68-1.59-21.83-6-13.67-22.47-22.27-41.14-21.24v31.89a339,339,0,0,0-40.84,10.12c-14.11,4.44-18.18,6.74-20.23,8-5.75,3.49-24.84,15.08-26.61,36.2-.08.92-1.25,18.56,11.23,31.5A37.65,37.65,0,0,0,104.32,467.73Z"/></g><g id="bottom"><path class="cls-1" d="M225.94,466.58c-6.33-6.31-12.9-8.92-20.35-11.89a93.86,93.86,0,0,0-22.86-5.87q9.33,16.17,18.32,34.11,2.92,5.85,5.65,11.61c-2.46,3.06-7.32,5.69-11.5,7.39C162.12,514.2,116.88,520.29,73.53,522,25,523.88.49,517.6,0,520.62S25.89,531.19,47,535a296.46,296.46,0,0,0,47.11,4.15c7.23.11,28.27-.06,59-4,59.36-7.61,71.28-19.66,76.07-25.87,2.76-3.59,8.93-11.83,8-22.37C236.21,476.8,229.29,469.91,225.94,466.58Z"/></g><path class="cls-1" d="M124.45,338.47q0,15.93,0,31.87A56.34,56.34,0,0,1,100.93,363c-5-2.91-15.69-9.11-21.16-22.39-.72-1.73-6.87-17.38.57-33.77,5.86-12.92,16.76-18.79,25.76-23.48,15.48-8.05,28.8-9.34,53-11.68,10.41-1,37.89-4.76,55-10,47.43-14.56,72.51-60.44,75.33-65.78,3.95-7.45,38.22-72.18,4.37-117.79-29.24-39.4-90.07-38.61-97.93-29.62C195.4,49,191,54.32,185.63,61c-2.78,3.46-4.65,5.89-5.06,6.37A128.64,128.64,0,0,1,150.4,93.05s-8.43,2-13.78,1.5l-6.88,9.4.72-4.24-5.83,2.08A66.86,66.86,0,0,0,135,94.28a3.8,3.8,0,0,1-2.25-1.23c-2.48-3.3,4.1-11.75,4.66-15.85,1.89-13.85-1.61-20.27.09-31.73,3.14-21.19,34.4-33.84,44.65-37.9C212.23-4.37,239.51.8,251.06,3.14,260.2,5,297.31,13,323.83,42.84,368.64,93.22,355.26,174.4,327.65,223c-5.09,9-29.62,50.17-76.24,71.58-33.69,15.47-61.48,19.07-61.48,19.07s-62.06,8-65.47,16a8.67,8.67,0,0,0-.37,1.09h0C123.93,331.37,124,333.76,124.45,338.47Z"/></g></g></g></g></svg>