<svg xmlns="http://www.w3.org/2000/svg" viewBox="0 0 363.86 543.86"><defs><style>.cls-1{fill:#e6e7e8;stroke:#bcbec0;stroke-miterlimit:10;stroke-width:4px;}.cls-2{fill:#999fa8;}.cls-3{fill:#a7a9ac;}.cls-4{fill:#15a590;}</style></defs><g id="Layer_2" data-name="Layer 2"><g id="Snake"><g id="Snake-2" data-name="Snake"><path class="cls-1" d="M183.94,383.53c-15.8,3.52-32.94,3.3-48.71,6l0-22.43.06-51.41v-7.08a82,82,0,0,1,14-3.81c11.86-1.16,23.38-2,34.63-3v81.73ZM233.33,519.6c-.51-.92-1.3-2.37-2.25-4.18l-71.33,8.92-33.7-4.21c20.41,2.71,70.73,7,90.16-20.82a41.82,41.82,0,0,0,2.33-3.77c-2.67-5.62-4.95-10.17-6.52-13.24-5.89-11.53-11.34-21.11-19.33-36-.24-.44-.48-.88-.71-1.33l-8-15V418.1c-8.64,1-17.74,2.86-27.51,4.21-6.75.93-15.17,1.48-21.25,4.64v3.52l-1.75,3.27-16.07,29.92-32,59.53.36,0c-2.2,4.17-5.42,10.76-5.42,13.77h0c0,1.78,12,2.78,21.64,3.58,8.92.75,27.71,1.74,67.87,1.16h0c27.54.08,41.74-.71,49.13-1.32,9.66-.81,21.64-1.81,21.64-3.59h0C240.59,532.61,234.42,521.56,233.33,519.6Z"/><g id="shadows-2" data-name="shadows"><path id="_3" data-name="3" class="cls-2" d="M135.51,327.23a118.18,118.18,0,0,1,13.72-2.63c5.28-.69,8.53-.76,19.31-1.34,3.6-.2,8.9-.49,15.4-.9V297.22l-48.55,4.71Z"/><path id="_1" data-name="1" class="cls-2" d="M110.08,539.2l-7.23-.62h0c-3.68-.47-7.9-1.29-10.49-2.74l132.28-33.55,11.19,21.94a141.15,141.15,0,0,1-15.42,5.26c-6.16,1.71-11,2.62-14.3,3.2-15.09,2.67-45.57,8.77-72.21,7.64C118,539.66,112,539.35,110.08,539.2Z"/><path class="cls-2" d="M183.94,271.68a9.93,9.93,0,0,1,.39-2.94c1.47-5.06,6.39-6.34,6.31-7.64-.3-4.64-64.52-4.46-64.79.67-.08,1.52,5.54,2.32,8.25,8a14.1,14.1,0,0,1,1.29,6.24Z"/><path id="_2" data-name="2" class="cls-2" d="M183.94,426.17V399.11L130.46,409.4l.55,27a184.84,184.84,0,0,1,20.05-5.81A181.86,181.86,0,0,1,183.94,426.17Z"/></g><path class="cls-1" d="M312.87,110.64l-4.5.31-4.55.29-4.59.3-4.64.28-4.68.28-4.73.27-4.78.26-4.82.25-4.86.25-4.91.23-4.95.23-5,.21-5,.2-5.07.19-5.12.18-5.15.17-5.19.15-4.89.14-4.87.11-4.85.11-4.82.09-4.79.08-4.77.07-4.75.06-4.72,0-4.69,0-4.67,0h-9.25l-4.58,0-4.55,0-4.52,0h-2l-.17,0-4.49,0c-1.51,0-3,0-4.53,0l-4.55,0h-9.19l-4.64,0-4.67,0-4.69,0-4.72,0-4.74-.07-4.77-.08-4.79-.09L96.79,115,92,114.83l-4.86-.13-5.17-.15-5.12-.17-5.09-.18-5-.19-5-.2-5-.22-4.93-.22-4.88-.24L42,112.89l-4.79-.25-4.75-.27q-2.37-.12-4.71-.27l-4.66-.27-4.62-.29L14,111.25,9.42,111,5,110.64a2.94,2.94,0,0,0-2.44,1.27,1.86,1.86,0,0,0-.17,2.32c1.31,1.49,2.6,3,3.85,4.48s2.49,3,3.69,4.49,2.38,3,3.53,4.48,2.27,3,3.36,4.46,2.16,3,3.2,4.43,2.05,2.94,3,4.4,1.94,2.91,2.87,4.35,1.83,2.87,2.7,4.29,1.72,2.83,2.54,4.22,1.62,2.78,2.39,4.15,1.51,2.73,2.23,4.07,1.4,2.67,2.07,4,1.31,2.6,1.93,3.87,1.21,2.54,1.78,3.77,1.13,2.46,1.65,3.66,1,2.37,1.52,3.53,1,2.29,1.39,3.4c.57,1.43,1.12,2.84,1.66,4.25l1.57,4.17c.52,1.38,1,2.76,1.55,4.12s1,2.72,1.58,4.07,1.09,2.7,1.67,4,1.19,2.68,1.83,4,1.31,2.67,2,4,1.49,2.68,2.31,4,1.7,2.69,2.64,4,1.94,2.71,3,4.08,2.24,2.74,3.48,4.13,2.56,2.79,4,4.2q2.49,2.47,5,4.71c1.69,1.48,3.4,2.89,5.11,4.22s3.41,2.58,5.1,3.75,3.36,2.28,5,3.31,3.28,2,4.87,2.89,3.13,1.72,4.63,2.48,3,1.46,4.35,2.11,2.72,1.22,4,1.75,2.45,1,3.55,1.42,2.13.79,3.06,1.11,1.77.6,2.5.84l1.87.57c1.82.54,3.6,1,5.35,1.45s3.47.81,5.16,1.13,3.32.61,4.93.85,3.17.43,4.69.58,3,.28,4.43.37,2.81.14,4.14.17,2.61,0,3.83,0,2.4-.05,3.51-.1,2.29.09,3.52.1,2.52,0,3.86,0S168.6,267,170,267s2.92-.21,4.45-.36,3.1-.35,4.71-.59,3.27-.51,5-.84,3.42-.7,5.18-1.13,3.55-.91,5.38-1.45c.51-.15,1.14-.34,1.88-.58s1.57-.51,2.51-.83,2-.69,3.07-1.12,2.3-.89,3.57-1.42,2.6-1.11,4-1.75,2.86-1.34,4.37-2.1,3.06-1.59,4.65-2.49,3.23-1.85,4.89-2.88,3.34-2.14,5-3.31,3.41-2.43,5.13-3.76,3.43-2.73,5.13-4.22,3.4-3.05,5.06-4.71q2.14-2.11,4-4.19t3.49-4.14q1.63-2,3-4.08t2.65-4q1.24-2,2.32-4c.72-1.34,1.4-2.67,2.05-4s1.25-2.68,1.83-4,1.14-2.69,1.68-4,1.07-2.7,1.59-4.07,1-2.73,1.56-4.12,1-2.77,1.58-4.17,1.09-2.82,1.66-4.25c.45-1.11.92-2.25,1.4-3.4s1-2.34,1.53-3.53,1.08-2.42,1.66-3.66,1.17-2.49,1.8-3.77,1.26-2.56,1.93-3.87,1.37-2.64,2.09-4,1.47-2.7,2.24-4.07,1.58-2.75,2.4-4.15,1.68-2.8,2.56-4.22,1.79-2.86,2.72-4.3,1.9-2.89,2.89-4.35,2-2.92,3.05-4.39,2.12-2.95,3.22-4.43,2.23-3,3.38-4.47,2.34-3,3.55-4.47,2.45-3,3.72-4.49,2.55-3,3.87-4.48a1.84,1.84,0,0,0-.16-2.32A3,3,0,0,0,312.87,110.64Z"/><path class="cls-3" d="M4,111.64c47.22-3.84,98.27-6.23,152.69-6.29,56.1-.07,108.64,2.35,157.11,6.29-49.27,3-101.5,4.75-156.42,4.72C103.59,116.32,52.38,114.59,4,111.64Z"/><g id="Body"><g id="middle"><path class="cls-4" d="M115.16,467.73l17.7-33a143.6,143.6,0,0,1,19.29-8.38c11.07-3.87,15.2-3.83,31.79-8.29,14-3.77,21.09-5.73,26.76-9.81,3.88-2.78,12.85-9.22,16-21.29.39-1.5,2.88-11.68-1.59-21.83-6-13.67-22.47-22.27-41.14-21.24v31.89a339,339,0,0,0-40.84,10.12c-14.1,4.44-18.18,6.74-20.22,8C117.13,397.41,98,409,96.26,430.12c-.08.92-1.25,18.56,11.23,31.5A37.65,37.65,0,0,0,115.16,467.73Z"/></g><g id="bottom"><path class="cls-4" d="M236.78,467.58c-6.33-6.31-12.9-8.92-20.35-11.89a93.73,93.73,0,0,0-22.86-5.87c6.22,10.78,12.36,22.14,18.33,34.11q2.91,5.85,5.64,11.61c-2.45,3.06-7.32,5.69-11.5,7.39C173,515.2,127.72,521.29,84.37,523c-48.51,1.9-73-4.38-73.52-1.36S36.73,532.19,57.8,536a296.61,296.61,0,0,0,47.11,4.15c7.24.11,28.28-.06,59-4,59.36-7.61,71.28-19.66,76.07-25.87,2.77-3.59,8.93-11.83,8-22.37C247.05,477.8,240.13,470.91,236.78,467.58Z"/></g><path class="cls-4" d="M135.29,338.47l0,31.87A56.33,56.33,0,0,1,111.77,363c-5-2.91-15.69-9.11-21.16-22.39-.72-1.73-6.87-17.38.57-33.77,5.87-12.92,16.76-18.79,25.76-23.48,15.48-8.05,28.8-9.34,53-11.68,10.41-1,37.89-4.76,55-10,47.43-14.56,72.51-60.44,75.33-65.78,3.95-7.45,38.22-72.18,4.37-117.79-29.24-39.4-90.07-38.61-97.93-29.62-.45.52-4.9,5.84-10.23,12.48-2.77,3.46-4.64,5.89-5.06,6.37a128.64,128.64,0,0,1-30.17,25.72s-8.43,2-13.78,1.5l-6.88,9.4.72-4.24-5.83,2.08a66.86,66.86,0,0,0,10.34-7.51,3.8,3.8,0,0,1-2.25-1.23c-2.48-3.3,4.1-11.75,4.66-15.85,1.89-13.85-1.6-20.27.09-31.73,3.14-21.19,34.4-33.84,44.65-37.9C223.07-4.37,250.36.8,261.9,3.14,271.05,5,308.15,13,334.67,42.84,379.48,93.22,366.1,174.4,338.49,223c-5.09,9-29.62,50.17-76.23,71.58-33.7,15.47-61.49,19.07-61.49,19.07s-62.05,8-65.47,16a11,11,0,0,0-.37,1.09h0C134.78,331.37,134.87,333.76,135.29,338.47Z"/></g></g></g></g></svg>