<svg xmlns="http://www.w3.org/2000/svg" viewBox="0 0 361.86 542.13"><defs><style>.cls-1{fill:#e6e7e8;}.cls-2{fill:#dcddde;}.cls-3{fill:#939598;}.cls-4{fill:#999fa8;}.cls-5{fill:#a7a9ac;}.cls-6{fill:#263468;}</style></defs><g id="Layer_2" data-name="Layer 2"><g id="Snake"><g id="Snake-2" data-name="Snake"><path class="cls-1" d="M181.94,383.53c-15.8,3.52-32.94,3.3-48.71,6l0-22.43.06-51.41v-7.08a82,82,0,0,1,14-3.81c11.86-1.16,23.38-2,34.63-3v81.73ZM231.33,519.6c-.51-.92-1.3-2.37-2.25-4.18l-71.33,8.92-33.7-4.21c20.41,2.71,70.73,7,90.16-20.82a41.82,41.82,0,0,0,2.33-3.77c-2.67-5.62-4.95-10.17-6.52-13.24-5.89-11.53-11.34-21.11-19.33-36-.24-.44-.48-.88-.71-1.33l-8-15V418.1c-8.64,1-17.74,2.86-27.51,4.21-6.75.93-15.17,1.48-21.25,4.64v3.52l-1.75,3.27-16.07,29.92-32,59.53.36,0c-2.2,4.17-5.42,10.76-5.42,13.77h0c0,1.78,12,2.78,21.64,3.58,8.92.75,27.71,1.74,67.87,1.16h0c27.54.08,41.74-.71,49.13-1.32,9.66-.81,21.64-1.81,21.64-3.59h0C238.59,532.61,232.42,521.56,231.33,519.6Z"/><path class="cls-2" d="M145.34,540.13c-19.47,0-34.69-.45-45.23-1.33-6-.5-16.7-1.39-19.7-2.44.29-1.48,1.34-4.87,5.09-12l1.62-3.07-.33,0,48.38-90.07v-2.77c4.61-2.06,10.61-2.8,15.95-3.46,1.23-.15,2.43-.3,3.58-.46,4.38-.6,8.63-1.31,12.74-2,4.33-.72,8.46-1.41,12.49-1.94V430.8l9,16.73c2.86,5.33,5.39,10,7.74,14.27,4.19,7.67,7.8,14.3,11.57,21.68,2.2,4.3,4.38,8.74,6.49,13.19l.32.66.67.3c2.76,1.24,4.46,2.72,4.56,3.94.12,1.57-2,3.62-6.44,6.1-6.18,3.48-19.67,8-38,12.68l.74,3.92L228,517.85c.67,1.26,1.23,2.28,1.62,3l.06.11c5.19,9.35,6.53,13.53,6.85,15.24-3,1-13.72,1.94-19.7,2.43C206.25,539.5,191,540,171.54,540h-6.06v0C158.37,540.08,151.6,540.13,145.34,540.13Zm-10-229.81a78.93,78.93,0,0,1,12.24-3.23c6.73-.66,13.42-1.22,19.89-1.76q6.3-.52,12.48-1.07v77.93a222.57,222.57,0,0,1-25.37,3.18c-6.4.55-13,1.13-19.33,2.11Z"/><path class="cls-3" d="M177.94,306.44v74.1a235.08,235.08,0,0,1-23.55,2.84c-5.66.49-11.47,1-17.15,1.78l0-17.75.06-51.41v-4.25a74.89,74.89,0,0,1,10.51-2.68c6.69-.66,13.35-1.21,19.8-1.75,3.39-.28,6.86-.57,10.3-.88m0,116.49v8.37l.48.89,8,15,.49.91.23.42c2.86,5.33,5.34,9.88,7.74,14.28,4.18,7.66,7.79,14.27,11.55,21.63,2.19,4.29,4.36,8.71,6.47,13.13l.63,1.33,1.34.61a8.19,8.19,0,0,1,3.36,2.27c-.18.46-1.07,1.75-5.4,4.2-6,3.38-19.23,7.79-37.25,12.42l-9.05,1.13-9.31,1.16A238.24,238.24,0,0,0,131.74,525c-7.45,1.78-11.64,3-11.23,7,.12,1.2.92,4,5.71,4,6.85,0,29.64-4.42,50.88-9.86L226.84,520c.33.6.66,1.21,1,1.8l.07.12A82.64,82.64,0,0,1,234,534.74c-4.11.78-12.47,1.48-17.4,1.89-10.47.88-25.64,1.32-45.08,1.32h-8V538c-6.4.08-12.5.12-18.19.12-19.42,0-34.58-.45-45.07-1.32-4.92-.41-13.28-1.11-17.4-1.9a70.16,70.16,0,0,1,4.39-9.6l3.24-6.15h-.29l28.65-53.35,16.07-29.91,1.76-3.27.47-.89v-1.93c4.19-1.58,9.46-2.23,14.2-2.82,1.24-.15,2.45-.3,3.61-.46,4.41-.61,8.68-1.32,12.8-2,3.51-.58,6.88-1.14,10.16-1.61m4-120.86c-11.25,1-22.77,1.87-34.63,3a82,82,0,0,0-14,3.81V316l-.06,51.41,0,22.43c15.77-2.72,32.91-2.51,48.71-6V302.07Zm0,116.3c-8.64,1-17.74,2.86-27.51,4.21-6.75.93-15.17,1.48-21.25,4.64v3.52L131.42,434l-16.07,29.92-32,59.53.36,0c-2.2,4.17-5.42,10.76-5.42,13.77h0c0,1.78,12,2.78,21.64,3.58,7.06.59,20.29,1.34,45.4,1.34,6.63,0,14.08-.06,22.47-.18h3.72c25.11,0,38.36-.74,45.41-1.33,9.66-.81,21.64-1.81,21.64-3.59h0c0-4.15-6.17-15.2-7.26-17.16-.51-.92-1.3-2.37-2.25-4.18l-52.72,6.6c-21.28,5.45-43.82,9.79-50.14,9.79-1.1,0-1.71-.13-1.73-.41-.08-.74,10.81-4.25,33.26-7.06l18.61-2.32c16-4.11,31.32-8.86,38.46-12.88,2.28-1.28,7.75-4.36,7.45-8-.23-2.87-4-4.8-5.73-5.6-2.67-5.62-4.95-10.16-6.52-13.24-5.89-11.53-11.34-21.11-19.33-36l-.71-1.33-8-15V418.37Z"/><g id="shadows-2" data-name="shadows"><path id="_3" data-name="3" class="cls-4" d="M133.45,328.46a109,109,0,0,1,13.73-2.84c5.29-.75,8.55-.83,19.34-1.46,3.61-.21,8.92-.53,15.42-1V296l-48.61,5.1Z"/><path class="cls-4" d="M181.94,275.67a41.13,41.13,0,0,1,.39-6.06c1.47-10.49,6.39-13.13,6.31-15.81-.3-9.62-64.52-9.23-64.79,1.37-.08,3.15,5.54,4.8,8.25,16.58a57.21,57.21,0,0,1,1.29,12.92Z"/><path id="_2" data-name="2" class="cls-4" d="M181.93,426.12v-27l-48.39,10.27q-.11,11.56-.22,23.13a214.53,214.53,0,0,1,28.38-5.08C169,426.62,175.78,426.23,181.93,426.12Z"/><path id="_1" data-name="1" class="cls-4" d="M109.42,538.63c-3.18.09-8.24-.28-8.25-.28h0c-3.8-.47-8.15-1.3-10.82-2.77L221.65,503l11.61,22.76c-2.51.9-6.24,2.15-10.86,3.41-6.22,1.69-11.11,2.59-14.74,3.23-15,2.63-22.57,4-32.25,4.76a227.41,227.41,0,0,1-41.06-.37C117.69,538.18,111.56,538.57,109.42,538.63Z"/></g><path class="cls-2" d="M160.05,264.64c-1.2,0-2.35-.05-3.44-.09h-.22c-1.09,0-2.23.08-3.43.09h-1.29l-2.45,0c-1.35,0-2.71-.09-4.05-.17s-2.9-.21-4.33-.35-3.06-.35-4.58-.58-3.22-.51-4.82-.82-3.37-.7-5-1.1-3.5-.91-5.24-1.42l-1.82-.57c-.71-.22-1.53-.49-2.44-.81s-1.91-.68-3-1.09-2.24-.87-3.48-1.39-2.61-1.12-3.9-1.71-2.85-1.35-4.25-2.07-3.06-1.59-4.55-2.43-3.21-1.86-4.76-2.83-3.31-2.13-4.92-3.24-3.37-2.42-5-3.68-3.39-2.71-5-4.12-3.35-3-4.92-4.6c-1.36-1.36-2.67-2.73-3.88-4.09s-2.31-2.67-3.38-4-2-2.62-2.93-4-1.75-2.59-2.56-3.91-1.52-2.57-2.24-3.91-1.33-2.56-2-3.9S55,205.3,54.4,203.92s-1.12-2.65-1.65-4-1-2.68-1.57-4-1-2.55-1.44-3.84l-.1-.26c-.52-1.39-1-2.79-1.58-4.19s-1.09-2.85-1.67-4.29c-.44-1.12-.91-2.27-1.4-3.44s-1-2.36-1.54-3.57-1.09-2.44-1.67-3.7-1.18-2.52-1.8-3.81-1.28-2.59-1.95-3.92-1.38-2.66-2.1-4-1.47-2.72-2.25-4.11-1.58-2.78-2.41-4.19-1.69-2.84-2.57-4.27S26.91,145.42,26,144s-1.9-2.92-2.9-4.39-2-2.95-3.06-4.44-2.12-3-3.23-4.48-2.23-3-3.39-4.5-2.35-3-3.56-4.52-2.46-3-3.72-4.53c-1.1-1.3-2.23-2.61-3.37-3.92l.09-.05,4.42.31,4.53.3,4.58.29,4.62.29,4.67.28,4.71.27,4.75.26,4.8.26,4.85.24,4.89.24,4.93.22,5,.22,5,.2,5.06.19,5.09.18,5.14.17,5.17.15,4.87.13,4.84.12,4.82.11,4.8.09,4.78.08,4.75.07,4.72,0,4.7,0,4.67,0,4.65,0h9.21l4.56,0q2.27,0,4.53,0l4.6,0h1.94l4.63,0,4.56,0,4.59,0h9.26l4.67,0,4.7,0,4.73,0,4.75-.06,4.78-.07,4.8-.08,4.83-.09,4.85-.11,4.87-.12,4.9-.13,5.2-.15,5.16-.17,5.12-.18,5.08-.19,5-.2,5-.22,5-.22,4.91-.24,4.87-.24,4.82-.25,4.79-.26,4.73-.28,4.69-.27,4.65-.29,4.59-.29,4.56-.3,4.5-.3,0,0c-1.15,1.31-2.27,2.62-3.38,3.93q-1.92,2.25-3.75,4.52c-1.22,1.51-2.42,3-3.58,4.52s-2.31,3-3.42,4.51-2.19,3-3.25,4.47-2.08,3-3.08,4.44-2,2.94-2.92,4.39-1.85,2.9-2.74,4.34-1.75,2.86-2.59,4.27-1.64,2.81-2.42,4.19-1.54,2.76-2.27,4.12-1.43,2.69-2.11,4-1.33,2.63-2,3.92-1.24,2.56-1.82,3.81-1.14,2.48-1.68,3.69-1.05,2.41-1.54,3.58-1,2.31-1.42,3.43c-.58,1.45-1.13,2.88-1.68,4.29l-1.58,4.19-.27.71c-.43,1.14-.85,2.27-1.28,3.4-.52,1.35-1,2.69-1.58,4s-1.08,2.66-1.65,4-1.19,2.67-1.8,3.93-1.31,2.65-2,3.9-1.47,2.64-2.25,3.9-1.68,2.65-2.57,3.92-1.92,2.66-2.95,4-2.21,2.7-3.39,4-2.54,2.74-3.9,4.09c-1.58,1.57-3.25,3.12-4.94,4.6s-3.31,2.8-5,4.13-3.31,2.5-5,3.67-3.27,2.21-4.94,3.24-3.17,1.92-4.79,2.83-3,1.65-4.56,2.44-2.86,1.41-4.28,2.06-2.62,1.17-3.92,1.72-2.41,1-3.5,1.39-2.09.77-3,1.09l-2.45.81-1.83.56c-1.74.52-3.51,1-5.26,1.42s-3.39.78-5.06,1.11-3.23.58-4.85.82-3.07.41-4.6.57-2.91.27-4.35.35-2.71.14-4.07.17l-2.44,0Z"/><path class="cls-3" d="M305.33,116c-1.11,1.31-2.22,2.66-3.32,4-1.23,1.52-2.45,3.06-3.62,4.56s-2.32,3-3.45,4.55-2.21,3-3.28,4.51-2.1,3-3.11,4.49-2,3-2.94,4.43-1.88,2.94-2.78,4.38-1.76,2.87-2.61,4.32-1.64,2.8-2.45,4.23-1.55,2.79-2.29,4.16-1.45,2.73-2.14,4.07-1.34,2.66-2,4-1.24,2.57-1.84,3.86-1.15,2.5-1.69,3.73-1.05,2.39-1.56,3.61-1,2.34-1.44,3.48c-.54,1.35-1.09,2.77-1.69,4.33q-.81,2.11-1.59,4.2l-.27.71c-.42,1.13-.85,2.26-1.28,3.39-.59,1.55-1.09,2.81-1.56,4-.56,1.4-1.09,2.68-1.63,3.91s-1.16,2.62-1.75,3.84-1.28,2.58-1.94,3.8-1.43,2.56-2.18,3.79-1.62,2.56-2.49,3.79-1.86,2.58-2.85,3.84-2.15,2.62-3.3,3.9-2.47,2.67-3.8,4c-1.54,1.54-3.17,3-4.83,4.5s-3.23,2.73-4.91,4-3.24,2.45-4.91,3.6-3.19,2.15-4.83,3.17-3.1,1.88-4.69,2.77-3,1.62-4.47,2.39-2.8,1.38-4.19,2-2.56,1.15-3.84,1.68-2.29.93-3.42,1.36-2,.73-2.94,1.06c-.81.28-1.61.55-2.39.8l-1.79.54c-1.69.51-3.42,1-5.13,1.39s-3.31.76-4.95,1.08-3.15.57-4.73.8-3,.41-4.5.56-2.84.26-4.24.35-2.65.13-4,.17l-2.38,0h-1.29c-1.13,0-2.26,0-3.37-.09h-.44c-1.12.05-2.24.08-3.35.09h-1.26l-2.4,0c-1.31,0-2.63-.08-4-.16s-2.83-.21-4.22-.35-3-.34-4.47-.56-3.15-.5-4.71-.8-3.29-.68-4.92-1.08-3.42-.89-5.11-1.39c-.49-.14-1.08-.33-1.78-.55s-1.49-.48-2.38-.79-1.94-.69-2.92-1.07-2.27-.88-3.4-1.35-2.56-1.1-3.82-1.68-2.79-1.33-4.17-2-3-1.56-4.45-2.38-3.15-1.82-4.67-2.77-3.24-2.08-4.81-3.17-3.3-2.37-4.88-3.6-3.32-2.66-4.89-4-3.27-3-4.81-4.49c-1.32-1.32-2.59-2.67-3.78-4s-2.24-2.59-3.27-3.9-2-2.54-2.85-3.83-1.69-2.51-2.47-3.8-1.48-2.49-2.17-3.78-1.31-2.5-1.93-3.8-1.16-2.49-1.75-3.84-1.06-2.51-1.62-3.91c-.46-1.17-1-2.44-1.55-4l-1.44-3.84-.1-.26c-.52-1.39-1-2.79-1.58-4.2-.6-1.58-1.15-3-1.68-4.33-.46-1.13-.93-2.29-1.43-3.48s-1-2.42-1.55-3.61-1.12-2.52-1.69-3.73-1.19-2.56-1.82-3.86-1.31-2.66-2-4-1.4-2.71-2.12-4.06-1.5-2.77-2.28-4.16-1.62-2.85-2.43-4.24-1.72-2.88-2.6-4.31-1.82-2.93-2.76-4.38-1.94-3-2.92-4.44-2-3-3.1-4.48-2.15-3-3.26-4.52-2.27-3-3.42-4.55-2.39-3.06-3.59-4.56-2.2-2.7-3.31-4l3.15.21,4.58.29,4.63.29,4.67.28,4.72.27,4.76.26,4.81.25,4.85.25,4.89.23,4.94.23,5,.21,5,.21,5.06.19,5.1.18,5.14.17,5.18.15,4.87.13,4.85.12,4.83.11,4.81.09,4.78.08,4.76.07,4.73,0,4.7,0,4.68,0,4.65,0h9.22l4.57,0c1.51,0,3,0,4.54,0l4.5,0h2.1l4.54,0,4.56,0,4.59,0h9.27l4.68,0,4.71,0,4.73,0,4.76-.06,4.78-.07,4.81-.08,4.84-.09,4.86-.11,4.88-.12,4.9-.13,5.2-.15,5.17-.17,5.13-.18L249,119l5-.21c1.67-.06,3.34-.14,5-.21l5-.22,4.91-.24,4.88-.24,4.83-.26,4.78-.26,4.75-.27,4.69-.28,4.65-.28,4.6-.3,3.19-.2m5.69-5.39h-.15l-4.5.31-4.55.29-4.59.3-4.64.28-4.68.28-4.73.27-4.78.26-4.82.25-4.86.25-4.91.23-4.95.23-5,.21-5,.2-5.07.19-5.12.18-5.15.17-5.19.15-4.89.14-4.87.11-4.85.11-4.82.09-4.79.08-4.77.07-4.75.06-4.72,0-4.69,0-4.67,0h-9.25l-4.58,0-4.55,0-4.52,0h-2l-.17,0-4.49,0c-1.51,0-3,0-4.53,0l-4.55,0h-9.19l-4.64,0-4.67,0-4.69,0-4.72,0-4.74-.07-4.77-.08-4.79-.09L94.79,115,90,114.83l-4.86-.13-5.17-.15-5.12-.17-5.09-.18-5-.19-5-.2-5-.22-4.93-.22-4.88-.24L40,112.89l-4.79-.25-4.75-.27q-2.37-.12-4.71-.27l-4.66-.27-4.62-.29L12,111.25,7.42,111,3,110.64H2.8a3,3,0,0,0-2.29,1.27,1.86,1.86,0,0,0-.17,2.32c1.31,1.49,2.6,3,3.85,4.48s2.49,3,3.69,4.49,2.38,3,3.53,4.48,2.27,3,3.36,4.46,2.16,3,3.2,4.43,2.05,2.94,3,4.4,1.94,2.91,2.87,4.35,1.83,2.87,2.7,4.29,1.72,2.83,2.54,4.22,1.62,2.78,2.39,4.15,1.51,2.73,2.23,4.07,1.4,2.67,2.07,4,1.31,2.6,1.93,3.87,1.21,2.54,1.78,3.77,1.13,2.46,1.65,3.66,1,2.37,1.52,3.53,1,2.29,1.39,3.4c.57,1.43,1.12,2.84,1.66,4.25l1.57,4.17c.52,1.38,1,2.76,1.55,4.12s1,2.72,1.58,4.07,1.09,2.7,1.67,4,1.19,2.68,1.83,4,1.31,2.67,2,4,1.49,2.68,2.31,4,1.7,2.69,2.64,4,1.94,2.71,3,4.08,2.24,2.74,3.48,4.13,2.56,2.79,4,4.2q2.49,2.47,5,4.71c1.69,1.48,3.4,2.89,5.11,4.22s3.41,2.58,5.1,3.75,3.36,2.28,5,3.31,3.28,2,4.87,2.89,3.13,1.72,4.63,2.48,3,1.46,4.35,2.11,2.72,1.22,4,1.75,2.45,1,3.55,1.42,2.13.79,3.06,1.11,1.77.6,2.5.84l1.87.57c1.82.54,3.6,1,5.35,1.45s3.47.81,5.16,1.13,3.32.61,4.93.85,3.17.43,4.69.58,3,.28,4.43.37,2.81.14,4.14.17l2.51,0H153c1.23,0,2.4-.05,3.51-.1s2.29.09,3.52.1h1.36l2.5,0c1.33,0,2.72-.08,4.16-.17s2.92-.21,4.45-.36,3.1-.35,4.71-.59,3.27-.51,5-.84,3.42-.7,5.18-1.13,3.55-.91,5.38-1.45c.51-.15,1.14-.34,1.88-.58s1.57-.51,2.51-.83,2-.69,3.07-1.12,2.31-.89,3.57-1.42,2.6-1.11,4-1.75,2.86-1.34,4.37-2.1,3.06-1.59,4.65-2.49,3.23-1.85,4.89-2.88,3.34-2.14,5-3.31,3.41-2.43,5.13-3.76,3.43-2.73,5.13-4.22,3.4-3.05,5.06-4.71q2.14-2.11,4-4.19t3.49-4.14q1.63-2,3-4.08t2.65-4q1.24-2,2.32-4c.72-1.34,1.4-2.67,2.05-4s1.25-2.68,1.83-4,1.14-2.69,1.68-4,1.07-2.7,1.59-4.07,1-2.73,1.56-4.12,1-2.77,1.58-4.17,1.09-2.82,1.66-4.25c.45-1.11.92-2.25,1.4-3.4s1-2.34,1.53-3.53,1.08-2.42,1.66-3.66,1.17-2.49,1.8-3.77,1.26-2.56,1.93-3.87,1.37-2.64,2.09-4,1.47-2.7,2.24-4.07,1.58-2.75,2.4-4.15,1.68-2.8,2.56-4.22,1.79-2.86,2.72-4.3,1.9-2.89,2.89-4.35,2-2.92,3.05-4.39,2.12-2.95,3.22-4.43,2.23-3,3.38-4.47,2.34-3,3.55-4.47,2.45-3,3.72-4.49,2.55-3,3.87-4.48a1.84,1.84,0,0,0-.16-2.32,3,3,0,0,0-2.3-1.27Z"/><path class="cls-5" d="M2,113.64c47.22-3.84,98.27-6.23,152.69-6.29,56.1-.07,108.64,2.35,157.11,6.29-49.27,3-101.5,4.75-156.42,4.72C101.59,118.32,50.38,116.59,2,113.64Z"/><g id="Body"><g id="middle"><path class="cls-6" d="M113.16,467.73l17.7-33a143.6,143.6,0,0,1,19.29-8.38c11.07-3.87,15.2-3.83,31.79-8.29,14-3.77,21.09-5.73,26.76-9.81,3.88-2.78,12.85-9.22,16-21.29.39-1.5,2.88-11.68-1.59-21.83-6-13.67-22.47-22.27-41.14-21.24v31.89a339,339,0,0,0-40.84,10.12c-14.1,4.44-18.18,6.74-20.22,8C115.13,397.41,96,409,94.26,430.12c-.08.92-1.25,18.56,11.23,31.5A37.65,37.65,0,0,0,113.16,467.73Z"/></g><g id="bottom"><path class="cls-6" d="M234.78,466.58c-6.33-6.31-12.9-8.92-20.35-11.89a93.73,93.73,0,0,0-22.86-5.87c6.22,10.78,12.36,22.14,18.33,34.11q2.91,5.85,5.64,11.61c-2.45,3.06-7.32,5.69-11.5,7.39C171,514.2,125.72,520.29,82.37,522c-48.51,1.9-73-4.38-73.52-1.36S34.73,531.19,55.8,535a296.61,296.61,0,0,0,47.11,4.15c7.24.11,28.28-.06,59-4,59.36-7.61,71.28-19.66,76.07-25.87,2.77-3.59,8.93-11.83,8-22.37C245.05,476.8,238.13,469.91,234.78,466.58Z"/></g><path class="cls-6" d="M133.29,338.47l0,31.87A56.33,56.33,0,0,1,109.77,363c-5-2.91-15.69-9.11-21.16-22.39-.72-1.73-6.87-17.38.57-33.77,5.87-12.92,16.76-18.79,25.76-23.48,15.48-8.05,28.8-9.34,53-11.68,10.41-1,37.89-4.76,55-10,47.43-14.56,72.51-60.44,75.33-65.78,3.95-7.45,38.22-72.18,4.37-117.79-29.24-39.4-90.07-38.61-97.93-29.62-.45.52-4.9,5.84-10.23,12.48-2.77,3.46-4.64,5.89-5.06,6.37a128.64,128.64,0,0,1-30.17,25.72s-8.43,2-13.78,1.5l-6.88,9.4.72-4.24-5.83,2.08a66.86,66.86,0,0,0,10.34-7.51,3.8,3.8,0,0,1-2.25-1.23c-2.48-3.3,4.1-11.75,4.66-15.85,1.89-13.85-1.6-20.27.09-31.73,3.14-21.19,34.4-33.84,44.65-37.9C221.07-4.37,248.36.8,259.9,3.14,269.05,5,306.15,13,332.67,42.84,377.48,93.22,364.1,174.4,336.49,223c-5.09,9-29.62,50.17-76.23,71.58-33.7,15.47-61.49,19.07-61.49,19.07s-62.05,8-65.47,16a11,11,0,0,0-.37,1.09h0C132.78,331.37,132.87,333.76,133.29,338.47Z"/></g></g></g></g></svg>