<svg xmlns="http://www.w3.org/2000/svg" viewBox="0 0 363.86 542.13"><defs><style>.cls-1,.cls-4{fill:#e6e7e8;}.cls-2{fill:#414042;}.cls-3{fill:#999fa8;}.cls-4,.cls-5{stroke:#414042;stroke-miterlimit:10;}.cls-4{stroke-width:4px;}.cls-5{fill:#a7a9ac;stroke-width:5px;}.cls-6{fill:#413f99;}</style></defs><g id="Layer_2" data-name="Layer 2"><g id="Snake"><g id="Snake-2" data-name="Snake"><path class="cls-1" d="M183.94,383.53c-15.8,3.52-32.94,3.3-48.71,6l0-22.43.06-51.41v-7.08a82,82,0,0,1,14-3.81c11.86-1.16,23.38-2,34.63-3v81.73ZM233.33,519.6c-.51-.92-1.3-2.37-2.25-4.18l-71.33,8.92-33.7-4.21c20.41,2.71,70.73,7,90.16-20.82a41.82,41.82,0,0,0,2.33-3.77c-2.67-5.62-4.95-10.17-6.52-13.24-5.89-11.53-11.34-21.11-19.33-36-.24-.44-.48-.88-.71-1.33l-8-15V418.1c-8.64,1-17.74,2.86-27.51,4.21-6.75.93-15.17,1.48-21.25,4.64v3.52l-1.75,3.27-16.07,29.92-32,59.53.36,0c-2.2,4.17-5.42,10.76-5.42,13.77h0c0,1.78,12,2.78,21.64,3.58,8.92.75,27.71,1.74,67.87,1.16h0c27.54.08,41.74-.71,49.13-1.32,9.66-.81,21.64-1.81,21.64-3.59h0C240.59,532.61,234.42,521.56,233.33,519.6Z"/><path class="cls-1" d="M147.34,539.63c-19.46,0-34.66-.45-45.18-1.33C96.46,537.83,86.38,537,83,536c.38-1.61,1.54-4.93,5-11.41l2-3.84h-.32l48-89.41V428.8c4.51-1.93,10.32-2.64,15.51-3.28,1.23-.16,2.43-.3,3.59-.46,4.39-.61,8.64-1.32,12.75-2s8.07-1.34,11.91-1.86v9.72l9.05,16.85c2.86,5.32,5.39,10,7.74,14.27,4.18,7.67,7.8,14.29,11.56,21.67,2.2,4.3,4.38,8.73,6.49,13.17l.4.83.83.38c3.05,1.37,4.21,2.75,4.27,3.52s-.66,2.51-6.19,5.62c-6.14,3.46-19.59,7.95-37.86,12.64l.94,4.9,51-6.38c.6,1.12,1.1,2,1.46,2.69l.06.11c4.19,7.54,6.15,12.29,6.71,14.65-3.38,1-13.47,1.81-19.16,2.29-10.53.87-25.74,1.32-45.21,1.32h-6.65v0C160,539.58,153.43,539.63,147.34,539.63Zm-9.51-229a78.22,78.22,0,0,1,11.81-3.09c6.72-.66,13.4-1.21,19.86-1.76,4-.33,8-.66,11.94-1v77a226.44,226.44,0,0,1-24.92,3.09c-6.2.54-12.6,1.1-18.78,2Z"/><path class="cls-2" d="M178.94,307.53v72.18c-7.35,1.34-15.1,2-22.63,2.67-5.3.46-10.73.93-16.07,1.64l0-16.61.06-51.41v-3.52a72.74,72.74,0,0,1,9.65-2.42c6.68-.65,13.32-1.21,19.75-1.74l9.22-.79m0,116.55v7.47l.6,1.11,8,15,.49.91.23.42c2.86,5.34,5.34,9.89,7.75,14.29,4.17,7.65,7.78,14.26,11.53,21.61,2.18,4.28,4.35,8.69,6.45,13.1l.79,1.67,1.68.75a10.78,10.78,0,0,1,2.49,1.46,19,19,0,0,1-4.61,3.22c-5.84,3.29-19.3,7.77-37,12.31l-9,1.13-9.3,1.16a239.62,239.62,0,0,0-25.62,4.4c-7,1.68-12.51,3-12,8.12.1,1,.75,4,4.79,4.75-9.62-.21-17.63-.58-23.94-1.11-4.46-.37-11.84-1-16.13-1.68a79.42,79.42,0,0,1,3.93-8.36l4-7.69-.28,0,27.82-51.8,16.07-29.92,1.76-3.27.59-1.11v-1.48c4-1.37,8.89-2,13.32-2.52l3.63-.47c4.42-.61,8.69-1.32,12.83-2,3.09-.52,6.08-1,9-1.45m49.35,97,.67,1.22.06.11A95.66,95.66,0,0,1,234.68,534c-4.3.69-11.67,1.3-16.14,1.68-10.45.87-25.59,1.31-45,1.31h-9.08V537c-6,.07-11.75.11-17.12.11q-9.22,0-17.15-.14c8.61-.63,29.51-4.77,49.09-9.78l49-6.13m-44.35-219c-11.25,1-22.77,1.87-34.63,3a82,82,0,0,0-14,3.81V316l-.06,51.41,0,22.43c15.77-2.72,32.91-2.51,48.71-6V302.07Zm0,116.3c-8.64,1-17.74,2.86-27.51,4.21-6.75.93-15.17,1.48-21.25,4.64v3.52L133.42,434l-16.07,29.92-32,59.53.36,0c-2.2,4.17-5.42,10.76-5.42,13.77h0c0,1.78,12,2.78,21.64,3.58,7.06.59,20.29,1.34,45.4,1.34,6.63,0,14.08-.06,22.47-.18h3.72c25.11,0,38.36-.74,45.41-1.33,9.66-.81,21.64-1.81,21.64-3.59h0c0-4.15-6.17-15.2-7.26-17.16-.51-.92-1.3-2.37-2.25-4.18l-52.72,6.6c-21.28,5.45-43.82,9.79-50.14,9.79-1.1,0-1.71-.13-1.73-.41-.08-.74,10.81-4.25,33.26-7.06l18.61-2.32c16-4.11,31.32-8.86,38.46-12.88,2.28-1.28,7.75-4.36,7.45-8-.23-2.87-4-4.8-5.73-5.6-2.67-5.62-4.95-10.16-6.52-13.24-5.89-11.53-11.34-21.11-19.33-36l-.71-1.33-8-15V418.37Z"/><g id="shadows-2" data-name="shadows"><path id="_3" data-name="3" class="cls-3" d="M140.76,328.46a70.47,70.47,0,0,1,10.8-2.84c4.16-.75,6.72-.83,15.2-1.46,2.84-.21,7-.53,12.13-1V296l-38.22,5.1Z"/><path class="cls-3" d="M138.49,280.87A55.91,55.91,0,0,0,137.2,271a31.57,31.57,0,0,0-7-14.27c-.42-.52-.93-1.15-1.15-1.51,1.62-2.18,13.29-5.2,31.25-5.2,15.66,0,25,2.28,27,4-.21.37-.56.9-.85,1.35a30.49,30.49,0,0,0-5.29,13.77c-.17,1.26-.29,2.55-.36,3.86Z"/><path class="cls-2" d="M160.34,253.24c11.26,0,18.57,1.18,22.29,2.24A33.4,33.4,0,0,0,178,268.72c-.08.54-.14,1.08-.2,1.63l-23.33,4.32L141.4,277.1a57.62,57.62,0,0,0-1.11-6.77,34.74,34.74,0,0,0-6.36-14c4.26-1.43,13.33-3.06,26.41-3.06m0-6.35c-16.8,0-34.35,2.75-34.49,8.28-.08,3.15,5.54,4.8,8.25,16.58a57.21,57.21,0,0,1,1.29,12.92l48.55-9a41.13,41.13,0,0,1,.39-6.06c1.47-10.49,6.39-13.13,6.31-15.81-.15-4.6-14.9-6.91-30.3-6.91Z"/><path id="_2" data-name="2" class="cls-3" d="M178.88,426.12v-27l-38.42,10.27q-.09,11.56-.17,23.13a139.79,139.79,0,0,1,38.58-6.39Z"/><path id="_1" data-name="1" class="cls-3" d="M110.84,538.09c-3.08.08-8-.28-8-.28h0c-3.68-.45-7.9-1.25-10.49-2.67l127.32-31.59,11.26,22.07c-2.43.87-6.06,2.09-10.53,3.3-6,1.65-10.78,2.52-14.3,3.14-14.59,2.55-21.89,3.83-31.27,4.61a219.94,219.94,0,0,1-39.81-.36C118.86,537.65,112.92,538,110.84,538.09Z"/></g><path class="cls-4" d="M312.87,110.64l-4.5.31-4.55.29-4.59.3-4.64.28-4.68.28-4.73.27-4.78.26-4.82.25-4.86.25-4.91.23-4.95.23-5,.21-5,.2-5.07.19-5.12.18-5.15.17-5.19.15-4.89.14-4.87.11-4.85.11-4.82.09-4.79.08-4.77.07-4.75.06-4.72,0-4.69,0-4.67,0h-9.25l-4.58,0-4.55,0-4.52,0h-2l-.17,0-4.49,0c-1.51,0-3,0-4.53,0l-4.55,0h-9.19l-4.64,0-4.67,0-4.69,0-4.72,0-4.74-.07-4.77-.08-4.79-.09L96.79,115,92,114.83l-4.86-.13-5.17-.15-5.12-.17-5.09-.18-5-.19-5-.2-5-.22-4.93-.22-4.88-.24L42,112.89l-4.79-.25-4.75-.27q-2.37-.12-4.71-.27l-4.66-.27-4.62-.29L14,111.25,9.42,111,5,110.64a2.94,2.94,0,0,0-2.44,1.27,1.86,1.86,0,0,0-.17,2.32c1.31,1.49,2.6,3,3.85,4.48s2.49,3,3.69,4.49,2.38,3,3.53,4.48,2.27,3,3.36,4.46,2.16,3,3.2,4.43,2.05,2.94,3,4.4,1.94,2.91,2.87,4.35,1.83,2.87,2.7,4.29,1.72,2.83,2.54,4.22,1.62,2.78,2.39,4.15,1.51,2.73,2.23,4.07,1.4,2.67,2.07,4,1.31,2.6,1.93,3.87,1.21,2.54,1.78,3.77,1.13,2.46,1.65,3.66,1,2.37,1.52,3.53,1,2.29,1.39,3.4c.57,1.43,1.12,2.84,1.66,4.25l1.57,4.17c.52,1.38,1,2.76,1.55,4.12s1,2.72,1.58,4.07,1.09,2.7,1.67,4,1.19,2.68,1.83,4,1.31,2.67,2,4,1.49,2.68,2.31,4,1.7,2.69,2.64,4,1.94,2.71,3,4.08,2.24,2.74,3.48,4.13,2.56,2.79,4,4.2q2.49,2.47,5,4.71c1.69,1.48,3.4,2.89,5.11,4.22s3.41,2.58,5.1,3.75,3.36,2.28,5,3.31,3.28,2,4.87,2.89,3.13,1.72,4.63,2.48,3,1.46,4.35,2.11,2.72,1.22,4,1.75,2.45,1,3.55,1.42,2.13.79,3.06,1.11,1.77.6,2.5.84l1.87.57c1.82.54,3.6,1,5.35,1.45s3.47.81,5.16,1.13,3.32.61,4.93.85,3.17.43,4.69.58,3,.28,4.43.37,2.81.14,4.14.17,2.61,0,3.83,0,2.4-.05,3.51-.1,2.29.09,3.52.1,2.52,0,3.86,0S168.6,267,170,267s2.92-.21,4.45-.36,3.1-.35,4.71-.59,3.27-.51,5-.84,3.42-.7,5.18-1.13,3.55-.91,5.38-1.45c.51-.15,1.14-.34,1.88-.58s1.57-.51,2.51-.83,2-.69,3.07-1.12,2.3-.89,3.57-1.42,2.6-1.11,4-1.75,2.86-1.34,4.37-2.1,3.06-1.59,4.65-2.49,3.23-1.85,4.89-2.88,3.34-2.14,5-3.31,3.41-2.43,5.13-3.76,3.43-2.73,5.13-4.22,3.4-3.05,5.06-4.71q2.14-2.11,4-4.19t3.49-4.14q1.63-2,3-4.08t2.65-4q1.24-2,2.32-4c.72-1.34,1.4-2.67,2.05-4s1.25-2.68,1.83-4,1.14-2.69,1.68-4,1.07-2.7,1.59-4.07,1-2.73,1.56-4.12,1-2.77,1.58-4.17,1.09-2.82,1.66-4.25c.45-1.11.92-2.25,1.4-3.4s1-2.34,1.53-3.53,1.08-2.42,1.66-3.66,1.17-2.49,1.8-3.77,1.26-2.56,1.93-3.87,1.37-2.64,2.09-4,1.47-2.7,2.24-4.07,1.58-2.75,2.4-4.15,1.68-2.8,2.56-4.22,1.79-2.86,2.72-4.3,1.9-2.89,2.89-4.35,2-2.92,3.05-4.39,2.12-2.95,3.22-4.43,2.23-3,3.38-4.47,2.34-3,3.55-4.47,2.45-3,3.72-4.49,2.55-3,3.87-4.48a1.84,1.84,0,0,0-.16-2.32A3,3,0,0,0,312.87,110.64Z"/><path class="cls-5" d="M4,111.64c47.22-3.84,98.27-6.23,152.69-6.29,56.1-.07,108.64,2.35,157.11,6.29-49.27,3-101.5,4.75-156.42,4.72C103.59,116.32,52.38,114.59,4,111.64Z"/><g id="Body"><g id="middle"><path class="cls-6" d="M115.16,467.73l17.7-33a143.6,143.6,0,0,1,19.29-8.38c11.07-3.87,15.2-3.83,31.79-8.29,14-3.77,21.09-5.73,26.76-9.81,3.88-2.78,12.85-9.22,16-21.29.39-1.5,2.88-11.68-1.59-21.83-6-13.67-22.47-22.27-41.14-21.24v31.89a339,339,0,0,0-40.84,10.12c-14.1,4.44-18.18,6.74-20.22,8C117.13,397.41,98,409,96.26,430.12c-.08.92-1.25,18.56,11.23,31.5A37.65,37.65,0,0,0,115.16,467.73Z"/></g><g id="bottom"><path class="cls-6" d="M236.78,466.58c-6.33-6.31-12.9-8.92-20.35-11.89a93.73,93.73,0,0,0-22.86-5.87c6.22,10.78,12.36,22.14,18.33,34.11q2.91,5.85,5.64,11.61c-2.45,3.06-7.32,5.69-11.5,7.39C173,514.2,127.72,520.29,84.37,522c-48.51,1.9-73-4.38-73.52-1.36S36.73,531.19,57.8,535a296.61,296.61,0,0,0,47.11,4.15c7.24.11,28.28-.06,59-4,59.36-7.61,71.28-19.66,76.07-25.87,2.77-3.59,8.93-11.83,8-22.37C247.05,476.8,240.13,469.91,236.78,466.58Z"/></g><path class="cls-6" d="M135.29,338.47l0,31.87A56.33,56.33,0,0,1,111.77,363c-5-2.91-15.69-9.11-21.16-22.39-.72-1.73-6.87-17.38.57-33.77,5.87-12.92,16.76-18.79,25.76-23.48,15.48-8.05,28.8-9.34,53-11.68,10.41-1,37.89-4.76,55-10,47.43-14.56,72.51-60.44,75.33-65.78,3.95-7.45,38.22-72.18,4.37-117.79-29.24-39.4-90.07-38.61-97.93-29.62-.45.52-4.9,5.84-10.23,12.48-2.77,3.46-4.64,5.89-5.06,6.37a128.64,128.64,0,0,1-30.17,25.72s-8.43,2-13.78,1.5l-6.88,9.4.72-4.24-5.83,2.08a66.86,66.86,0,0,0,10.34-7.51,3.8,3.8,0,0,1-2.25-1.23c-2.48-3.3,4.1-11.75,4.66-15.85,1.89-13.85-1.6-20.27.09-31.73,3.14-21.19,34.4-33.84,44.65-37.9C223.07-4.37,250.36.8,261.9,3.14,271.05,5,308.15,13,334.67,42.84,379.48,93.22,366.1,174.4,338.49,223c-5.09,9-29.62,50.17-76.23,71.58-33.7,15.47-61.49,19.07-61.49,19.07s-62.05,8-65.47,16a11,11,0,0,0-.37,1.09h0C134.78,331.37,134.87,333.76,135.29,338.47Z"/></g></g></g></g></svg>