<svg xmlns="http://www.w3.org/2000/svg" xmlns:xlink="http://www.w3.org/1999/xlink" viewBox="0 0 144.0566 144.0566"><defs><style>.cls-1{fill:#2bb673;stroke:#414042;stroke-width:6px;}.cls-1,.cls-2,.cls-4{stroke-miterlimit:10;}.cls-2{fill:#e6e7e8;}.cls-2,.cls-4{stroke:#bcbec0;stroke-width:0.1803px;}.cls-3{fill:#bcbec0;}.cls-4{fill:url(#radial-gradient);}.cls-5{fill:#464547;}.cls-6{fill:#fff;}</style><radialGradient id="radial-gradient" cx="69.1524" cy="47.3896" r="25.5121" gradientTransform="translate(0 39.3664) scale(1 0.1693)" gradientUnits="userSpaceOnUse"><stop offset="0.233" stop-color="#2a2771"/><stop offset="0.9525" stop-color="#2450a3" stop-opacity="0.96"/></radialGradient></defs><g id="Layer_2" data-name="Layer 2"><g id="bowl"><circle class="cls-1" cx="72.0283" cy="72.0283" r="69.0283"/></g><g id="Layer_12" data-name="Layer 12"><path class="cls-2" d="M73.2821,94.8607c-2.97.6618-6.1908.6209-9.1549,1.1329,1.0412-3.4568.742-11.22.7643-14.8216,2.7427-1.029,5.6337-.8311,8.3906-1.18Zm10.0361,24.6615c-.0965-.1741-.2451-.4454-.4221-.7845-6.5912.7238-13.1269,2.3174-19.7206.8833,3.9893.5577,14.1978,1.317,17.3654-4.6169-1.9848-4.1735-4.1778-7.9027-6.4958-12.3.0021-.6955-.0017-1.5488,0-2.24-2.8118.5615-6.3559.6119-9.1549,1.6621a1.892,1.892,0,0,1-.331,1.2755c-1.9177,3.5706-7.039,13.1046-9.02,16.7932l.0676-.003c-1.8531,3.2341-.9727,2.907,3.0449,3.2578,1.6749.14,5.2025.3258,12.743.2178l0-.0019c7.1363-.1927,9.4245.208,13.2867-.9219A11.7263,11.7263,0,0,0,83.3182,119.5222Z"/><path id="_1" data-name="1" class="cls-3" d="M60.2,122.7589a8.8259,8.8259,0,0,1-3.1953-.6053L80.85,116.1058l2.0165,3.9559C77.0249,122.3423,67.19,123.4319,60.2,122.7589Z"/><path class="cls-3" d="M73.5147,74.5363c-.2133-.8564,1.2031-1.7794,1.2077-1.9062-.0546-.8377-11.631-.8036-11.6786.12.2183.2057,2.0386,1.4387,1.72,2.57Z"/><path id="_2" data-name="2" class="cls-3" d="M73.2821,102.926l.0021-4.8783-9.6428,1.8556.1,4.8671A33.62,33.62,0,0,1,73.2821,102.926Z"/><path id="_3" data-name="3" class="cls-3" d="M64.552,84.55c2.5515-.7014,5.4207-.6437,8.73-.8782V79.141l-8.7512.8494Z"/><path class="cls-2" d="M96.7551,45.5083c-7.9044.0047-16.869,1.975-24.3376.2367h-.8308c-.4039.7745-1.6667.6365-2.4611.6128l-.03.15-.1676-.763H68.76l-.0306.6129c-6.92.193-13.8438-.1552-20.7927-.4442-1.5974.32-6.8584-1.2929-7.1565.2413,9.3428,9.7539,8.7015,26.0771,25.2811,27.4622C79.8273,75.19,87.08,66.8144,91.1688,54.7743,91.4316,52.8,98.5,45.7611,96.7551,45.5083Z"/><path class="cls-3" d="M81.37,65.2488c2.8947-4.2115,9.2615-15.6438,15.7228-19.2155C86.9,56.4653,89.4519,71.8246,70.8763,73.5614,76.1614,70.5748,77.7472,69.4384,81.37,65.2488Z"/><path id="toppart" class="cls-4" d="M53.79,47.5441c9.6537.9717,36.2264.8231,43.2719-1.7979.0285-1.1935-14.2044-3.0612-28.49-3.0238C48.2912,43.0063,27.08,46.0442,53.79,47.5441Z"/><g id="Body"><g id="middle"><path class="cls-5" d="M60.8839,109.8765l3.1912-5.9411c3.2115-2.1473,10.6541-2.7129,14.0316-4.773,5.6237-3.1911,2.9218-12.43-4.8246-11.6013v5.748c-7.0993,2.0149-13.6406,1.49-15.8056,9.7864C57.0485,103.1872,58.2892,109.0041,60.8839,109.8765Z"/></g><g id="bottom"><path class="cls-5" d="M83.22,109.8486c-2.4368-2.08-4.4329-2.5814-7.7887-3.2,1.4777,2.5561,3.0056,5.46,4.32,8.2406-6.3146,4.0821-15.31,4.2433-24.0043,4.9479-8.7451.3408-13.1654-.79-13.2531-.2459C47.6568,124.661,95.262,125.2256,83.22,109.8486Z"/></g><g id="top"><path class="cls-5" d="M106.2588,37.2607C100.6919,24.9249,82.32,20.913,72.4926,30.4741,68.8136,32.2,69.2805,37.035,69.6,39.4811c-.08.8476-1.7621,2.7449-.4352,3.0788a12.0079,12.0079,0,0,1-1.8629,1.3523l1.05-.3747-.1287.7649,1.24-1.6945c4.1507.3589,7.7793-4.737,10.1556-7.8651,3.24-3.2223,13.2433-2.1039,18.11,3.5617C107.0254,53.19,93.0626,68.091,85.4928,71.7229c-5.981,3.6809-13.9985,2.3054-20.7293,3.5969-12.4663,2.08-12.4193,13.7722-.6363,17.0565.0471-.6371.8981-8.5457.7629-8.8926,9.9176-1.9867,19.4276-.3042,28.379-7.17C105.4966,66.1742,112.2185,54.78,106.2588,37.2607Z"/></g><path id="top-2" data-name="top" class="cls-5" d="M106.2588,37.2607C100.6919,24.9249,82.32,20.913,72.4926,30.4741,68.8136,32.2,69.2805,37.035,69.6,39.4811c-.08.8476-1.7621,2.7449-.4352,3.0788a12.0079,12.0079,0,0,1-1.8629,1.3523l1.05-.3747-.1287.7649,1.24-1.6945c4.1507.3589,7.7793-4.737,10.1556-7.8651,3.24-3.2223,13.2433-2.1039,18.11,3.5617C107.0254,53.19,93.0626,68.091,85.4928,71.7229c-5.981,3.6809-13.9985,2.3054-20.7293,3.5969-12.4663,2.08-12.4193,13.7722-.6363,17.0565.0471-.6371.8981-8.5457.7629-8.8926,9.9176-1.9867,19.4276-.3042,28.379-7.17C105.4966,66.1742,112.2185,54.78,106.2588,37.2607Z"/></g><g id="Eye-2" data-name="Eye"><path class="cls-6" d="M72.0908,34.0253l-.3281.3822c-.0507.0591-.0926.1341-.0346.2054a.3108.3108,0,0,0,.2623.07l.5208-.0293a.5208.5208,0,0,0,.2455-.0861c.0456-.033.12-.09.1193-.1524l-.0083-.8209a.1368.1368,0,0,0-.0716-.1361.37.37,0,0,0-.2175-.0344.5386.5386,0,0,0-.2455.0861c-.0456.033-.12.09-.1193.1525l.0083.8209.3648-.2386-.5207.0293.2277.2758.3281-.3822a.18.18,0,0,0,.06-.1585.1764.1764,0,0,0-.1309-.1075.4778.4778,0,0,0-.2447.0066.4509.4509,0,0,0-.2152.1167Z"/></g></g></g></svg>