<svg xmlns="http://www.w3.org/2000/svg" xmlns:xlink="http://www.w3.org/1999/xlink" viewBox="0 0 93.0966 134.4143"><defs><style>.cls-1{fill:#e6e7e8;}.cls-2{fill:#bcbec0;}.cls-3{fill:url(#radial-gradient);}.cls-4{fill:url(#linear-gradient);}.cls-5{fill:url(#linear-gradient-2);}.cls-6{fill:url(#linear-gradient-3);}.cls-7{fill:#fff;}</style><radialGradient id="radial-gradient" cx="38.3543" cy="33.9017" r="42.5697" gradientTransform="matrix(0.9999, 0.0144, -0.0028, 0.1943, 0.0985, 26.7645)" gradientUnits="userSpaceOnUse"><stop offset="0.0114" stop-color="#3ed178"/><stop offset="0.9525" stop-color="#00a88e"/></radialGradient><linearGradient id="linear-gradient" x1="22.9525" y1="101.2499" x2="56.0367" y2="101.2499" gradientUnits="userSpaceOnUse"><stop offset="0.0028" stop-color="#00aa8b"/><stop offset="0.257" stop-color="#007dbf"/><stop offset="0.4958" stop-color="#17569e"/><stop offset="0.7347" stop-color="#2a3582"/><stop offset="0.8659" stop-color="#312978"/></linearGradient><linearGradient id="linear-gradient-2" x1="2.6119" y1="122.8318" x2="61.0987" y2="122.8318" xlink:href="#linear-gradient"/><linearGradient id="linear-gradient-3" x1="19.6431" y1="46.058" x2="93.0966" y2="46.058" xlink:href="#linear-gradient"/></defs><g id="Layer_2" data-name="Layer 2"><g id="Layer_1-2" data-name="Layer 1"><g id="Stem"><path class="cls-1" d="M44.9474,95.2993c-3.9037.87-8.1375.8162-12.0336,1.4892l.0066-5.54.0151-12.7022.002-1.75a20.353,20.353,0,0,1,3.4541-.9391c2.9308-.2885,5.7757-.4937,8.5557-.7507V95.2993ZM57.15,128.9167c-.127-.2291-.3225-.5862-.5554-1.0324L38.97,130.0875l-8.3262-1.0409c5.0424.67,17.4743,1.7181,22.2747-5.1446a9.825,9.825,0,0,0,.5762-.9307c-.6591-1.388-1.2227-2.5108-1.6105-3.27-1.4548-2.8487-2.8012-5.2154-4.7756-8.8909l-.1765-.3286-1.9852-3.6959v-2.9469c-2.1336.25-4.3826.7074-6.7959,1.0408A16.9135,16.9135,0,0,0,32.9,106.026l-.0014.8705-.434.8079-3.97,7.3915-7.8994,14.7064.089-.0039a11.1159,11.1159,0,0,0-1.3388,3.4006h0c0,.44,2.96.6873,5.3451.8863,2.2044.1838,6.8463.4286,16.7686.2865l0-.0024c6.8025.0191,10.3106-.1751,12.1387-.3275,2.3853-.199,5.3449-.4459,5.3451-.8863h0C58.9428,132.13,57.4183,129.4009,57.15,128.9167Z"/></g><g id="Shadows"><path id="_1" data-name=" 1" class="cls-2" d="M26.6986,133.7576c-.3019-.0234-1.7859-.1532-1.7863-.1532h-.0008a7.8731,7.8731,0,0,1-2.5922-.6761L55,124.6393l2.7638,5.422a35.3887,35.3887,0,0,1-3.8091,1.2975,36.1047,36.1047,0,0,1-3.5321.7912c-3.7279.6591-11.26,2.1673-17.8415,1.8885C28.6475,133.8716,27.1752,133.7945,26.6986,133.7576Z"/><path class="cls-2" d="M44.9474,67.6651a2.4625,2.4625,0,0,1,.0953-.7247c.3633-1.2522,1.58-1.5673,1.56-1.8879-.0746-1.1481-15.9408-1.1014-16.0061.1641-.0194.3758,1.3692.5732,2.0382,1.98a3.466,3.466,0,0,1,.3189,1.5426Z"/><path id="_2" data-name=" 2" class="cls-2" d="M44.9471,106.5753l.0029-6.686-13.2161,2.5432.1363,6.6707a45.5721,45.5721,0,0,1,4.9534-1.4355A44.7425,44.7425,0,0,1,44.9471,106.5753Z"/><path id="_3" data-name=" 3" class="cls-2" d="M32.9822,81.39a29.1492,29.1492,0,0,1,3.3886-.6491c1.3058-.1715,2.109-.1883,4.7711-.3317.8909-.048,2.2006-.1215,3.8054-.2229v-6.21L32.9533,75.14Q32.9677,78.2649,32.9822,81.39Z"/></g><g id="outer-cup"><path class="cls-1" d="M76.8,27.88q-.5527.038-1.1116.0751t-1.1233.0738q-.5642.0365-1.1347.0721t-1.1463.07q-.5759.0348-1.1574.0686t-1.1687.0667q-.587.033-1.18.0646t-1.1906.0625q-.5979.0307-1.2013.06t-1.2121.0579q-.6087.0284-1.2227.0554t-1.2332.0527q-.6188.0256-1.2432.05t-1.2534.0471q-.6292.0231-1.2635.0443t-1.2732.0413q-.639.02-1.2828.0381-.6054.0173-1.2081.0327t-1.2024.0294q-.6.0139-1.197.0262t-1.1908.0229q-.5942.0107-1.1851.02t-1.1788.0166q-.5877.0076-1.1726.0135t-1.1661.0105q-.5817.0043-1.16.0074t-1.1527.0045q-.5746.0014-1.1457.0016t-1.1388-.0012q-.5676-.0015-1.1317-.0041t-1.1244-.0069q-.56-.0042-1.1169-.0095l-.0418-.0039c-.0761.0008-.1543.0018-.23.0018s-.1537-.0008-.23-.0017l-.042.0039q-.5534.0054-1.1105.01t-1.1177.0071q-.5607.0028-1.125.0043t-1.1323.0015q-.5678,0-1.1391-.0015t-1.146-.0043q-.5748-.003-1.1527-.0074t-1.1593-.01q-.5811-.006-1.1656-.0134t-1.172-.0165q-.5876-.009-1.1781-.02t-1.184-.0229q-.5934-.0121-1.19-.026t-1.1955-.0294q-.5991-.0155-1.2009-.0327-.64-.018-1.2764-.0379t-1.2669-.0413q-.6309-.0213-1.257-.0443t-1.2471-.0473q-.621-.0243-1.2371-.05t-1.2268-.0529q-.6106-.0271-1.2165-.0555t-1.206-.0579q-.6-.03-1.1953-.06t-1.1846-.0626q-.59-.0318-1.1736-.0648T6.37,28.2412q-.5784-.0339-1.1515-.0688t-1.14-.07Q3.5108,28.066,2.949,28.03t-1.1175-.0739Q1.2756,27.9183.7257,27.88a.7211.7211,0,0,0-.6029.3138.456.456,0,0,0-.04.5736q.4849.5525.9505,1.1066t.9113,1.1079q.4456.5538.8713,1.1064t.8308,1.1022q.4051.55.79,1.0955t.7493,1.0861q.3643.54.7085,1.0743t.668,1.06q.3242.5262.6283,1.0439T7.78,39.5764q.2846.5076.55,1.005t.5128.9821q.2472.4854.4763.9577t.4412.9312q.2118.4587.4072.9026t.3749.8723q.18.4284.3441.84.2117.53.4086,1.0494t.3884,1.0319q.1915.5121.3824,1.0173c.128.337.2574.672.3907,1.0057s.27.666.4135.9975.2927.6621.4509.9926.325.6606.5029.9911.3671.6613.57.9932.4189.6645.6513.9987.4807.67.7475,1.0078.5522.6779.8583,1.0207.6331.688.9833,1.0369q.615.6126,1.2452,1.1631.6284.5513,1.2623,1.0428.6323.4921,1.26.9275t1.24.8175q.6115.382,1.2013.7129c.392.2208.7749.425,1.1456.6137s.7292.3617,1.073.52.6726.3024.9838.4327.6049.2469.878.3508.5261.1955.756.2753.4364.1482.6171.2059.3357.1048.462.1425q.6728.2,1.3225.3587t1.273.2792q.6232.1212,1.2184.208t1.1587.1448q.5636.058,1.0938.09t1.0235.0433q.4932.0115.9476.0052t.866-.0247q.4136.0185.87.0249t.9524-.005q.4956-.0114,1.0286-.0431t1.0992-.09q.5664-.0579,1.1646-.1446t1.2244-.2078q.6266-.1211,1.2792-.2791t1.3289-.3587c.1269-.0376.2828-.0848.4645-.1424s.3891-.126.62-.2058.4849-.1713.7595-.2753.5694-.2206.882-.3509.6432-.274.9885-.4325.7057-.3316,1.0782-.52.7571-.3928,1.1508-.6137.7974-.4581,1.2071-.7129.8258-.527,1.2454-.8176.8427-.5994,1.2662-.9275.8474-.6754,1.2683-1.0429.8391-.7549,1.2512-1.1634q.5277-.523.9877-1.037t.8623-1.0207q.402-.5068.751-1.008t.6546-.9989q.3054-.4975.5725-.9932t.5054-.9913q.2385-.4956.4534-.9927c.144-.3315.2816-.6638.4155-.9976s.2639-.6688.3928-1.0059.2559-.6759.3845-1.0173.2577-.6852.3907-1.032.269-.6964.4108-1.0495q.1658-.4118.3462-.84t.3771-.8724q.1967-.4438.41-.9027t.444-.9312q.23-.4725.4791-.9577t.5161-.9825q.267-.4969.5537-1.0049t.5925-1.0255q.3062-.5178.6322-1.0441t.6721-1.06q.3464-.5339.7132-1.0743t.7539-1.0861q.3873-.5456.7953-1.0954t.8362-1.1022q.4281-.5523.8768-1.1063t.9173-1.1077q.4684-.5539.9566-1.1063a.4541.4541,0,0,0-.0391-.5736A.7248.7248,0,0,0,76.8,27.88Z"/></g><g id="top"><path id="toppart" class="cls-3" d="M17.9125,30.67c4.2253.3452,11.1126.799,19.9891.8255,9.6722.0289,17.3109-.4628,22.3738-.8907,10.03-.8477,16.92-1.43,16.9438-2.3993.04-1.6354-19.4676-4.1951-39.0474-4.144C19.221,24.1113.27,26.6066.309,28.212.334,29.2343,8.06,29.8655,17.9125,30.67Z"/></g><g id="Snake"><g id="Body"><g id="middle"><path class="cls-4" d="M27.7225,116.5526,32.176,108.41a36.0761,36.0761,0,0,1,4.8521-2.0709c2.7837-.9548,3.8242-.9456,7.9967-2.0489,3.5174-.93,5.3052-1.4157,6.7327-2.4223a9.4238,9.4238,0,0,0,4.0172-5.26,8.5578,8.5578,0,0,0-.4-5.3929c-1.5147-3.3773-5.6528-5.5013-10.35-5.2469v7.8781a86.7642,86.7642,0,0,0-10.273,2.4987,22.6281,22.6281,0,0,0-5.0883,1.9726c-1.4459.8617-6.25,3.7246-6.6952,8.9425a10.7106,10.7106,0,0,0,2.826,7.7844A9.506,9.506,0,0,0,27.7225,116.5526Z"/></g><g id="bottom"><path class="cls-5" d="M58.3158,116.0631a13.3812,13.3812,0,0,0-5.018-2.9353,23.0144,23.0144,0,0,0-5.6348-1.4508c1.5323,2.6621,3.0456,5.47,4.5173,8.4273q.7186,1.4439,1.3911,2.8671a7.4382,7.4382,0,0,1-2.8354,1.8264c-8.1547,3.032-19.3082,4.536-29.996,4.9541-11.9606.468-18.0063-1.0825-18.1263-.3361-.1257.7827,6.381,2.6111,11.5754,3.54a72.9934,72.9934,0,0,0,11.6142,1.0253,106.69,106.69,0,0,0,14.5516-.9908c14.6343-1.8814,17.5738-4.8572,18.7538-6.391a8.016,8.016,0,0,0,1.965-5.5273A8.2941,8.2941,0,0,0,58.3158,116.0631Z"/></g><g id="top-2"><path class="cls-6" d="M89.994,16.5764C82.33-.3308,57.0368-5.8294,43.5082,7.2749c-.0373.0236-.0753.045-.1119.07-1.3588.9315-3.4017,2.7976-3.8485,4.4356-.9223,3.3812.1923,6.2591-.0225,7.8386-.1376,1.0113-1.77,3.0995-1.1562,3.9166a.9626.9626,0,0,0,.5579.3035,16.5323,16.5323,0,0,1-2.5646,1.8534l1.4455-.5135-.1772,1.0483,1.7077-2.3224a13.8418,13.8418,0,0,0,3.418-.3693A31.8925,31.8925,0,0,0,50.2446,17.18c1.9272-2.2383,2.1309-3.1194,3.0749-4.0541C57.78,8.709,71.5518,10.2419,78.2512,18.007c9.53,11.0462-.0305,29.1644-.9953,30.9339-4.7233,8.6632-13.664,13.67-15.8514,14.8686a29.4981,29.4981,0,0,1-2.8418,1.3849c-4.6073,1.9428-8.2864,2.1849-13.6474,2.4705A87.9144,87.9144,0,0,0,32.8676,68.739c-4.4205.867-8.4744,2.5958-11.6772,6.3561-4.77,6.8057,2.43,14.4,8.8433,16.2634.9158.2952,1.8518.5415,2.8009.7575L32.85,81.404l.0021-1.476a23.6085,23.6085,0,0,1,3.47-.792c2.9439-.2432,5.8016-.4163,8.594-.633,9.5737-.743,18.3739-2.0033,27.196-8.4016A52.843,52.843,0,0,0,88.3138,51.2923C90.595,46.4562,96.8143,31.6223,89.994,16.5764Z"/></g></g></g><g id="Eye"><g id="Eye-2"><path class="cls-7" d="M42.9958,12.142l-.45.5239c-.0694.0809-.1269.1838-.0474.2814a.4256.4256,0,0,0,.3595.0966l.7138-.04a.7134.7134,0,0,0,.3365-.118c.0625-.0452.1644-.1228.1635-.2089l-.0113-1.1251a.1879.1879,0,0,0-.0982-.1865.508.508,0,0,0-.2981-.047.7369.7369,0,0,0-.3365.118c-.0625.0453-.1644.1228-.1635.2089l.0113,1.1251.5-.3269-.7138.04.3121.378.45-.5239a.2469.2469,0,0,0,.0817-.2172.2417.2417,0,0,0-.1794-.1473.6554.6554,0,0,0-.3354.009.6165.6165,0,0,0-.2949.16Z"/></g></g></g></g></svg>