<svg xmlns="http://www.w3.org/2000/svg" fill='var(--svg-fill)' width="203.05" height="189.42" viewBox="0 0 203.05 189.42">
    <g id="meds">
      <path id="top-tab" d="M94.14,44.57A47.14,47.14,0,0,0,0,44.57Z"/>
      <path id="bottom-tab" d="M0,49.71a47.14,47.14,0,0,0,94.14,0Z"/>
      <path id="capsule" d="M93.23,189.42A37.11,37.11,0,0,1,67,126l72.75-72.75a36.91,36.91,0,0,1,7.71-5.91l.3-.17c.51-.29,1-.56,1.55-.82l.27-.14c.48-.24,1-.46,1.46-.68l.37-.13A37.24,37.24,0,0,1,189.68,51l.73.6.44.4c.47.43.93.86,1.39,1.32a37.29,37.29,0,0,1,1.93,50.4l-.45.52c-.48.54-1,1.07-1.48,1.58l-72.76,72.73A36.89,36.89,0,0,1,93.23,189.42ZM103.94,102l-31,30.6a28.13,28.13,0,1,0,39.77,39.8l31.15-31.72-.79-.8-.14-.08a99,99,0,0,1-20.14-15.1l-.47-.45-1.2-1.22c-.39-.4-.77-.81-1.14-1.21l-.4-.42-.38-.4c-.23-.25-.47-.49-.7-.75a98.35,98.35,0,0,1-13-18l-.08-.14-.79-.71Z"/>
    </g>
</svg>
