<svg xmlns="http://www.w3.org/2000/svg" width="157.22" height="157.22" fill="var(--svg-fill)"  viewBox="0 0 157.22 157.22">
      <path style="filter: hue-rotate(60deg)" d="M119.72,69H88.25V35.83a4.74,4.74,0,0,0-4.72-4.72H73.81a4.74,4.74,0,0,0-4.72,4.72V69H37.5a4.73,4.73,0,0,0-4.72,4.72v9.72a4.73,4.73,0,0,0,4.72,4.72H69.09v33.2a4.73,4.73,0,0,0,4.72,4.72h9.72a4.73,4.73,0,0,0,4.72-4.72V88.19h31.47a4.73,4.73,0,0,0,4.72-4.72V73.75A4.73,4.73,0,0,0,119.72,69Z"/>
      <path d="M78.61,0a78.61,78.61,0,1,0,78.61,78.61A78.62,78.62,0,0,0,78.61,0Zm55.08,91.81A4.74,4.74,0,0,1,129,96.53H96.53V129a4.74,4.74,0,0,1-4.72,4.73H65.42A4.75,4.75,0,0,1,60.69,129V96.53H28.26a4.74,4.74,0,0,1-4.72-4.72V65.42a4.74,4.74,0,0,1,4.72-4.73H60.69V28.26a4.74,4.74,0,0,1,4.73-4.72H91.81a4.74,4.74,0,0,1,4.72,4.72V60.69H129a4.75,4.75,0,0,1,4.73,4.73Z"/>
</svg>
