<svg xmlns="http://www.w3.org/2000/svg" viewBox="0 0 107.83 107.83"><defs><style>.cls-1{fill:currentColor;}</style></defs><g id="Layer_2" data-name="Layer 2"><g id="cross"><path id="cross-2" data-name="cross" class="cls-1" d="M100.69,33.32H74.51V7.14A7.14,7.14,0,0,0,67.37,0H40.46a7.14,7.14,0,0,0-7.14,7.14V33.32H7.14A7.14,7.14,0,0,0,0,40.46V67.37a7.14,7.14,0,0,0,7.14,7.14H33.32v26.18a7.14,7.14,0,0,0,7.14,7.14H67.37a7.14,7.14,0,0,0,7.14-7.14V74.51h26.18a7.14,7.14,0,0,0,7.14-7.14V40.46A7.14,7.14,0,0,0,100.69,33.32Z"/></g></g></svg>