<svg xmlns="http://www.w3.org/2000/svg" viewBox="0 0 107.55 103.23"><defs><style>.heart{fill:var(--svg-fill)}.ekg{fill:none;stroke:#f1f2f2;stroke-miterlimit:10;stroke-width:4.08px;}</style></defs><path  class="heart" d="M107.07,24.28c-.75-4.22-2.61-14.73-11.4-20.55S75.28-.46,67.28,4A30.32,30.32,0,0,0,53.77,20.42,30.32,30.32,0,0,0,40.26,4c-8-4.49-19.69-6.07-28.39-.3S1.22,20.06.47,24.28C-.57,30.22-.22,38.21,5,49.82,17.05,76.38,43.5,96,53.61,103v.23l.16-.12.16.12V103C60.79,98,113.11,58.48,107.07,24.28Z"/><path class="ekg" d="M7.26,57.33c8.26,3.61,12.62,2.87,15.1,1.35,2.94-1.8,3.39-4.84,6.37-5.32,3.82-.61,5.56,3.77,8.72,3.53,6.33-.48,8.27-18.57,11.91-18.46s5,19.4,9.56,19.62c3.07.15,4.44-8.63,8.83-8.84,3.47-.17,4.81,5.24,9.32,8.36,3.8,2.63,10.8,4.28,24.87-1"/></svg>
