<svg xmlns="http://www.w3.org/2000/svg" fill="var(--svg-fill)" viewBox="0 0 161.18 152.23"><path id="kidney-left"  d="M53.94,63.79c-3.53,31.74,19.54,51,9.76,62.06-6.87,7.78-22.84,3.44-25.11,2.79C14.23,121.66-2.2,89.51.24,61,3,29,29.76-2.22,50.83.27c6.25.74,13.6,4.63,17,11.22C75.33,25.69,56.85,37.6,53.94,63.79Z"/><path id="kidney-right"  d="M107.25,63.66c3.53,31.74-19.54,51-9.76,62.06,6.87,7.78,22.84,3.44,25.1,2.79,24.37-7,40.79-39.14,38.36-67.64-2.74-32-29.52-63.22-50.6-60.73-6.24.74-13.6,4.63-17,11.21C85.85,25.56,104.34,37.47,107.25,63.66Z"/><path  d="M70.81,150.11c-1.49-25.81-2.45-43.9-2.59-54.52v-.17c0-4.14-.17-13.84-5.74-16.15A6.41,6.41,0,0,0,60,78.79a8.73,8.73,0,0,0-1.23.1L58,79l-.48.67a12.39,12.39,0,0,0-1.54,4.57,27.45,27.45,0,0,0-.42,7.81l0,.46-.32.33a29.41,29.41,0,0,0-3.64,4.41,30.21,30.21,0,0,0-4.3,9.71l0,.15a14.87,14.87,0,0,1-.35,1.61L45,108.28c.09-.47.2-1,.29-1.37l0-.08v-.09c.43-2.68.61-7.75-3.06-11.63a12.9,12.9,0,0,0-8.08-3.82l-2.32-.22,1.76-1.53c5.82-5.06,8.22-12.81,6-19.28a17.3,17.3,0,0,0-8.52-9.34L29.16,60l1.94-.86a21.38,21.38,0,0,0,9.65-7.88c3.37-5.32,3.45-11.69,3.5-15.1,0-3,.48-3.19,1.32-3.22.69,0,1,.25,1.46,2.69a43.15,43.15,0,0,0,1.47,6.23c.92,2.81,2.06,4.87,4.32,9l.36.66c3.4,6.16,5.56,8.77,8.6,11.7a18.55,18.55,0,0,0,4,2.79,25.62,25.62,0,0,1,5.37,4.34c2.44,2.72,2.92,5.92,3.25,8,.9,6,2.36,32.39,3.38,71.32Z"/><path  d="M46.06,40.64c.16.58.34,1.18.54,1.82,1,3,2.22,5.24,4.47,9.33l.36.65c3.5,6.35,5.85,9.18,9,12.18a20.18,20.18,0,0,0,4.44,3.1,24.43,24.43,0,0,1,4.85,3.92c2,2.28,2.45,5,2.76,7,.88,5.81,2.29,31.35,3.31,69.14l-3.06.2c-1.42-24.69-2.33-42.11-2.47-52.42v-.18c-.06-4.92-.19-15.15-7-18A8.48,8.48,0,0,0,60,76.79a10.35,10.35,0,0,0-1.55.13l-1.64.26-1,1.35c-.78,1.07-1.32,2.62-1.88,5.35a29.35,29.35,0,0,0-.49,7.91,32.29,32.29,0,0,0-3.55,4.37,32.87,32.87,0,0,0-2.66,4.78,13.89,13.89,0,0,0-3.58-7.2,14.4,14.4,0,0,0-7.3-4.1c5.34-5.57,7.38-13.39,5.07-20a18.72,18.72,0,0,0-7.81-9.51,22.42,22.42,0,0,0,8.79-7.79,26,26,0,0,0,3.62-11.67m-.54-9.72c-3.2.1-3.24,3.16-3.27,5.19,0,3.22-.13,9.22-3.19,14.06a19.39,19.39,0,0,1-8.78,7.12l-5.79,2.58,5.66,2.84a15.21,15.21,0,0,1,7.53,8.21c2,5.7-.19,12.58-5.4,17.12L27,92.62l7,.67a10.8,10.8,0,0,1,6.82,3.2c3.08,3.25,2.91,7.62,2.54,9.93-.11.43-.23,1-.33,1.48l-.35,1.87,5.63,1.38.54-1.82a14.17,14.17,0,0,0,.41-1.86,28.23,28.23,0,0,1,7.41-13.19l1-1-.12-1.39a25.22,25.22,0,0,1,.38-7.23,13.26,13.26,0,0,1,1.2-3.8,5.81,5.81,0,0,1,.91-.08,4.42,4.42,0,0,1,1.71.33c4.43,1.83,4.47,11,4.51,14.5.15,10.95,1.14,29.58,2.59,54.55l.06,2.06,11-.69,0-1.92c-1-39-2.49-65.54-3.41-71.57A16.55,16.55,0,0,0,72.66,69a28.2,28.2,0,0,0-5.88-4.75,15.92,15.92,0,0,1-3.61-2.49c-2.9-2.78-5-5.28-8.23-11.22l-.37-.65c-2.2-4-3.31-6-4.17-8.64a40.49,40.49,0,0,1-1.4-6c-.32-1.83-.75-4.34-3.48-4.34Z"/><path  d="M83.38,149.54c1-38.93,2.48-65.35,3.39-71.32a14.65,14.65,0,0,1,3.24-8,26.37,26.37,0,0,1,5.37-4.33,18.56,18.56,0,0,0,4-2.8c3-2.92,5.2-5.53,8.59-11.69l.36-.66c2.27-4.11,3.4-6.17,4.32-9a41.76,41.76,0,0,0,1.48-6.22c.42-2.45.76-2.69,1.51-2.69s1.22.18,1.26,3.22c0,3.41.14,9.78,3.51,15.1A21.32,21.32,0,0,0,130.09,59l1.93.85-1.89.95a17.26,17.26,0,0,0-8.51,9.34c-2.25,6.47.15,14.22,6,19.28l1.76,1.53-2.32.22A12.93,12.93,0,0,0,118.94,95c-3.67,3.88-3.49,9-3,11.63v.09l0,.08c.1.39.21.9.3,1.37l-1.94.47a13.13,13.13,0,0,1-.36-1.61l0-.15A30.16,30.16,0,0,0,106,92.74l-.33-.33,0-.46a27.36,27.36,0,0,0-.42-7.8,12.24,12.24,0,0,0-1.53-4.58l-.49-.67-.81-.14a8.87,8.87,0,0,0-1.24-.1,6.36,6.36,0,0,0-2.47.48C93.14,81.45,93,91.14,93,95.28v.18c-.14,10.62-1.09,28.71-2.58,54.46V150Z"/><path d="M115.13,40.5a25.91,25.91,0,0,0,3.62,11.68A22.32,22.32,0,0,0,127.53,60a18.76,18.76,0,0,0-7.8,9.51c-2.31,6.64-.28,14.46,5.06,20a14.47,14.47,0,0,0-7.3,4.1,13.79,13.79,0,0,0-3.57,7.2A32,32,0,0,0,111.25,96a31.54,31.54,0,0,0-3.55-4.37,29.44,29.44,0,0,0-.49-7.92c-.55-2.72-1.09-4.27-1.87-5.35l-1-1.34-1.63-.26a9.29,9.29,0,0,0-1.56-.13,8.39,8.39,0,0,0-3.24.63c-6.78,2.82-6.91,13-7,18v.18c-.13,10.3-1,27.73-2.47,52.42l-3.06-.2c1-37.79,2.43-63.33,3.32-69.14a12.72,12.72,0,0,1,2.75-7,24.15,24.15,0,0,1,4.86-3.92,20.74,20.74,0,0,0,4.43-3.1c3.12-3,5.47-5.83,9-12.18l.36-.65c2.26-4.09,3.5-6.34,4.47-9.33.21-.64.39-1.25.55-1.83m.54-9.71c-2.73,0-3.17,2.51-3.48,4.34a40.7,40.7,0,0,1-1.41,5.95c-.86,2.64-2,4.65-4.17,8.64l-.36.66C103,56.32,100.91,58.82,98,61.6a16.48,16.48,0,0,1-3.61,2.49,28.47,28.47,0,0,0-5.89,4.75,16.62,16.62,0,0,0-3.73,9.08c-.92,6-2.38,32.55-3.41,71.56l0,1.93,11,.69.06-2.06c1.45-25,2.45-43.6,2.59-54.55C95,92,95.05,82.82,99.47,81a4.45,4.45,0,0,1,1.71-.33,6,6,0,0,1,.92.08,13.23,13.23,0,0,1,1.19,3.8,25.58,25.58,0,0,1,.39,7.23l-.12,1.39,1,1a27.1,27.1,0,0,1,3.39,4.12,28.05,28.05,0,0,1,4,9.07,19,19,0,0,0,.41,1.86l.55,1.82,5.63-1.39-.36-1.86c-.1-.51-.21-1.06-.32-1.48-.38-2.31-.54-6.68,2.54-9.93a10.86,10.86,0,0,1,6.82-3.21l6.95-.66L128.9,87.9c-5.21-4.53-7.38-11.41-5.39-17.11A15.24,15.24,0,0,1,131,62.58l5.67-2.85-5.8-2.57A19.31,19.31,0,0,1,122.13,50C119.06,45.19,119,39.2,118.93,36c0-2-.07-5.09-3.26-5.19Z"/></svg>
