<svg xmlns="http://www.w3.org/2000/svg" viewBox="0 0 231.9 258.73"><g id="Layer_2" data-name="Layer 2"><g id="Layer_1-2" data-name="Layer 1"><path class="input" d="M182.4,119.29c0,39.16-34.76,65.62-66.24,66.24-28.86.58-48-20.7-49.89-22.85-3.28-3.76-17-20.33-16.35-43.39.82-30.5,26.53-66.24,66.24-66.24C152.48,53.05,182.4,83,182.4,119.29Z"/><path class="base" d="M68.65,164.67a130.25,130.25,0,0,1,18.16,31.45,106.58,106.58,0,0,1,7.48,33.54H138a106.64,106.64,0,0,1,7.49-33.54,130.24,130.24,0,0,1,18.15-31.45A572.74,572.74,0,0,1,68.65,164.67Z"/><path class="bulb" d="M98.31,230.66H134a0,0,0,0,1,0,0v13.45a13.61,13.61,0,0,1-13.61,13.61h-8.47a13.61,13.61,0,0,1-13.61-13.61V230.66A0,0,0,0,1,98.31,230.66Z"/><line class="bulb" x1="98.31" y1="236.84" x2="134" y2="236.84"/><line class="bulb" x1="134" y1="243.29" x2="98.31" y2="243.29"/><path class="cls-4" d="M92.39,71.05C79.28,81.19,69.58,93.87,65.7,109"/>

<g class="sparkles"><line  x1="116.36" y1="38.75" x2="116.36" y2="3.5"/><line  x1="194.56" y1="96.16" x2="228.4" y2="86.26"/><line  x1="166.2" y1="54.73" x2="187.82" y2="26.88"/><line  x1="37.34" y1="96.16" x2="3.5" y2="86.26"/><line  x1="65.7" y1="54.73" x2="44.08" y2="26.88"/></g></g></g></svg>