<svg xmlns="http://www.w3.org/2000/svg" width="200" height="37.72" viewBox="0 0 200 37.72">
  <defs>
    <style>
      .cls-1 {
        fill: #3e26ed;
      }
    </style>
  </defs>
  <g id="Layer_2" data-name="Layer 2">
    <g id="Layer_1-2" data-name="Layer 1">
      <path class="cls-1" d="M195.5,35.15a10.15,10.15,0,0,1-1.8-5.94V8.62c.1-3.45-2.22-8.29-6.3-8.61-51,0-123.85,0-174.8.1A5.75,5.75,0,0,0,8.1,2.88,11,11,0,0,0,6.3,8.62V29.21a10.15,10.15,0,0,1-1.8,5.94A5.75,5.75,0,0,1,0,37.72H200A5.75,5.75,0,0,1,195.5,35.15Z"/>
    </g>
  </g>
</svg>
