<svg xmlns="http://www.w3.org/2000/svg" xmlns:xlink="http://www.w3.org/1999/xlink" viewBox="0 0 29.01 26.4"><defs><style>.cls-1{fill:url(#radial-gradient);}.cls-2,.cls-4{fill:none;stroke:#272e24;}.cls-2{stroke-linecap:square;stroke-linejoin:round;stroke-width:1.25px;}.cls-3{fill:#272e24;}.cls-4{stroke-miterlimit:10;}</style><radialGradient id="radial-gradient" cx="13.49" cy="11.16" r="21.77" gradientTransform="matrix(0.88, -0.48, 0.21, 0.39, -0.73, 13.3)" gradientUnits="userSpaceOnUse"><stop offset="0.09" stop-color="#e5db8b"/><stop offset="0.32" stop-color="#ede6ae"/><stop offset="0.79" stop-color="#fff"/></radialGradient></defs><g id="Layer_2" data-name="Layer 2"><g id="icon"><path class="cls-1" d="M1.66,20.89A38.28,38.28,0,0,1,6,8.16c.09,6.42.44,7.83.76,7.85s.72-2.55,2.43-6.21a27.62,27.62,0,0,1,2.21-3.91c.19,6.58.6,8,1,8s.73-2.2,2.2-5.54A31.15,31.15,0,0,1,17,3.84c.49,6.43.93,7.79,1.26,7.8s.54-2.06,1.7-5a25.14,25.14,0,0,1,2.45-4.76c.17,7,.71,8.44,1.16,8.48s.65-.57,2.3-4.91c.85-2.24,1.54-4.11,2-5.41l-.15,24.59L1.4,24.94Z"/><line class="cls-2" x1="0.89" y1="25.22" x2="27.31" y2="25.22"/><path class="cls-3" d="M.94,26.16a.94.94,0,1,1,.94-.94A1,1,0,0,1,.94,26.16Z"/><polygon class="cls-3" points="26.96 26.4 29.01 25.22 26.96 24.03 26.96 26.4"/><path class="cls-4" d="M1.66,20.89A38.28,38.28,0,0,1,6,8.16c.09,6.42.44,7.83.76,7.85s.72-2.55,2.43-6.21a27.62,27.62,0,0,1,2.21-3.91c.19,6.58.6,8,1,8s.73-2.2,2.2-5.54A31.15,31.15,0,0,1,17,3.84c.49,6.43.93,7.79,1.26,7.8s.54-2.06,1.7-5a25.14,25.14,0,0,1,2.45-4.76c.17,7,.71,8.44,1.16,8.48s.65-.57,2.3-4.91c.52-1.37,1-2.61,1.37-3.66"/><polygon class="cls-3" points="28.35 2.56 27.91 0 25.92 1.66 28.35 2.56"/></g></g></svg>