<svg xmlns="http://www.w3.org/2000/svg" width="112.7" height="123.66" viewBox="0 0 112.7 123.66">
  <defs>
    <style>
      .cls-1 {
        fill: none;
        stroke: #000;
        stroke-miterlimit: 10;
        stroke-width: 3px;
      }
    </style>
  </defs>
  <g id="Layer_2" data-name="Layer 2">
    <g id="mortar-pestle-logo">
      <path class="cls-1" d="M67.69,75a26.41,26.41,0,0,1-.3,14.08A26.18,26.18,0,0,1,57,102.65c-2.13-1.2-9.16-5.51-11.7-14-1.71-5.72-.6-10.54.3-14.08A42.84,42.84,0,0,1,57.14,55,43.33,43.33,0,0,1,67.69,75Z"/>
      <path d="M112,41.36a3,3,0,0,0-1.6-.4H95.62l15-30c1.7-3.3.7-7.2-2.1-8.7L105,.56c-3-1.5-6.9.1-8.6,3.6L73.85,41H2.3C1,41,0,41.56,0,42.26v10c0,.7,1,1.3,2.3,1.3H4.89C1.6,72.86,6.42,92,18.2,104.06a41.5,41.5,0,0,0,6.3,5.31v11.39a3.77,3.77,0,0,0,.4,1.6c.4.7.8.7.9.7,10,.4,20.3.6,31,.6,10.4,0,20.5-.2,30.2-.6.7,0,1.3-1,1.4-2.2V109.2a42.25,42.25,0,0,0,6.1-5.14c11.78-12,16.6-31.2,13.31-50.5h2.59c1.2,0,2.3-.6,2.3-1.3v-10A1.21,1.21,0,0,0,112,41.36ZM84.87,92.21c-2.24,2.87-5.45,6.82-10.93,8.88a24.7,24.7,0,0,1-6.87,1.41,33.77,33.77,0,0,1-10.2-.6c-.07-.37-.15-.8-.22-1.25l-.55-.36c-.09.6-.18,1.15-.27,1.61a33.77,33.77,0,0,1-10.2.6,24.7,24.7,0,0,1-6.87-1.41c-5.48-2.06-8.69-6-10.93-8.88a43.45,43.45,0,0,1-8.48-21A42.75,42.75,0,0,1,41.79,75a39.31,39.31,0,0,1,4.58,2.53c.21-1,.44-1.91.64-2.72A40.71,40.71,0,0,1,57.08,57.07a41.4,41.4,0,0,1,9.14,18.18c.15.7.28,1.41.4,2.12A41.59,41.59,0,0,1,70.91,75a42.75,42.75,0,0,1,22.44-3.87A43.45,43.45,0,0,1,84.87,92.21Z"/>
    </g>
  </g>
</svg>
