<svg xmlns="http://www.w3.org/2000/svg" viewBox="0 0 211.47 209.65"><defs><style>.cls-1,.cls-2,.cls-3{fill:currentColor;}.cls-1,.cls-3,.cls-4{stroke:currentColor;stroke-miterlimit:10;}.cls-1{stroke-width:1.54px;}.cls-4{stroke-width:2px;}.cls-4{fill:none;}.cls-5{fill:#fff;}</style></defs><g id="Layer_2" data-name="Layer 2"><g id="base"><path class="cls-1" d="M193.73,25.28c-.62-2.34-1.84-4.2-3.13-4.78L115.88,37.65v0L17.67,60.16c-1.15,1.38-1.41,4.4-.68,7.21.62,2.34,1.84,4.2,3.13,4.77L94.84,55v0l98.2-22.53C194.2,31.11,194.46,28.09,193.73,25.28Z"/><path class="cls-2" d="M160.59,201.43c-.58-5.2-14.15-3.71-28.4-11-7.58-3.89-13-9-17.41-11.71V20.21H96.91V178.68c-4.46,2.67-9.83,7.82-17.42,11.72-14.25,7.32-27.82,5.83-28.4,11a3.58,3.58,0,0,0,.45,2.08h53.21a1.09,1.09,0,0,0,1.09-1.09,1.09,1.09,0,0,0,1.09,1.09h53.21A3.66,3.66,0,0,0,160.59,201.43Z"/><path class="cls-2" d="M118.67,6.45h-2.11V3.79a17.41,17.41,0,0,0-21.69,0V6.45H93a28.85,28.85,0,0,0-.81,7A28.58,28.58,0,0,0,93,20.22h25.65a28.58,28.58,0,0,0,.81-6.78A28.85,28.85,0,0,0,118.67,6.45Z"/><rect class="cls-2" x="47.62" y="202.42" width="116.45" height="7.23"/></g><g id="right-bowl"><path id="right-bowl-2" data-name="right-bowl" class="cls-3" d="M166.1,142.63a.3.3,0,0,0-.2.52,32.34,32.34,0,0,0,43.36,0,.3.3,0,0,0-.2-.52Z"/><line id="right-straight-rope" class="cls-4" x1="187.39" y1="28.58" x2="187.39" y2="139.98"/><path id="right-triangle-rope" class="cls-4" d="M187.39,103.27l-21.67,39.36a32.5,32.5,0,0,0,44.49,0Z"/><circle class="cls-5" cx="105.85" cy="46.35" r="3.41"/></g><g id="left-bowl"><path id="left-bowl-2" data-name="left-bowl" class="cls-3" d="M44.31,177.63a.32.32,0,0,1,.22.56,32.93,32.93,0,0,1-21.27,8.3,33,33,0,0,1-22-8.3.32.32,0,0,1,.22-.56Z"/><line id="left-straight-row" class="cls-4" x1="24.08" y1="63.58" x2="24.08" y2="174.98"/><path id="left-triangular-rope" class="cls-4" d="M24.08,138.27l21.67,39.36a33.1,33.1,0,0,1-21.24,8.79,33.33,33.33,0,0,1-23.24-8.79Z"/><circle id="left-ellipse" class="cls-5" cx="23.89" cy="65.32" r="3.41"/><circle class="cls-5" cx="187.39" cy="27.57" r="3.41"/></g></g></svg>