<svg xmlns="http://www.w3.org/2000/svg" width="200" height="38.1" viewBox="0 0 200 38.1">
  <defs>
    <style>
      .cls-1 {
        fill: #3e26ed;
        clip-path: url(#myPath)
      }
      #myPath{
        transform: translate(-15px, -10px) scale(4)
      }
    </style>

  </defs>
 <clipPath id="myPath" >
    <path d="M186.07,35.6c1.33-1.89,1.34-4.41,1.34-5.75,0-.17,0-.3,0-.35V8.7a10.72,10.72,0,0,0-1.8-5.9A6.25,6.25,0,0,0,181.1,0H50.7C35.9.1,21.1.1,6.3.1A5.76,5.76,0,0,0,1.8,2.9,11.17,11.17,0,0,0,0,8.7V29.85c0,1.45,0,4.56,1.79,6.46a6.71,6.71,0,0,0,5,1.79H182.31A6.85,6.85,0,0,0,186.07,35.6Z" />
  </clipPath>
      <path class="cls-1" d="M195.2,34.54a9.45,9.45,0,0,1-1.5-4.69V8.7a10.72,10.72,0,0,0-1.8-5.9A6.25,6.25,0,0,0,187.4,0H57C42.2.1,27.4.1,12.6.1A5.76,5.76,0,0,0,8.1,2.9,11.17,11.17,0,0,0,6.3,8.7V29.85A9.68,9.68,0,0,1,5,34.24,9.39,9.39,0,0,1,0,38.1H200A9.18,9.18,0,0,1,195.2,34.54Z"/>


</svg>
