<svg xmlns="http://www.w3.org/2000/svg" width="200.12" height="38" viewBox="0 0 200.12 38">
  <g id="Layer_2" data-name="Layer 2">
    <g id="Layer_1-2" data-name="Layer 1">
      <path d="M194.71,36.08a9.09,9.09,0,0,1-3.23-6c.19-9.86.11-17.33,0-20.95a9.74,9.74,0,0,0-1.38-5.2A8.81,8.81,0,0,0,186.9,1a8.61,8.61,0,0,0-4-1H17.23a8.61,8.61,0,0,0-4,1,8.81,8.81,0,0,0-3.22,3,9.74,9.74,0,0,0-1.38,5.2c-.09,3.62-.17,11.09,0,21a9,9,0,0,1-3.23,6A8.86,8.86,0,0,1,0,38H200.12A8.86,8.86,0,0,1,194.71,36.08Z"/>
    </g>
  </g>
</svg>
