<svg  xmlns="http://www.w3.org/2000/svg" xmlns:xlink="http://www.w3.org/1999/xlink" x="0px" y="0px"
	 viewBox="0 0 200 38">
<style type="text/css">
      .tab {
        fill: #3e26ed;
        clip-path: url(#path)
      }
      #clip{
        transform: translate(3%, 0) scaleX(0.99);
        transform-origin: center center;

      }
</style>

<clipPath id="path">
    <path  id="clip" d="M186.07,35.6c1.33-1.89,1.34-4.41,1.34-5.75,0-.17,0-.3,0-.35V8.7a10.72,10.72,0,0,0-1.8-5.9A6.25,6.25,0,0,0,181.1,0H50.7C35.9.1,21.1.1,6.3.1A5.76,5.76,0,0,0,1.8,2.9,11.17,11.17,0,0,0,0,8.7V29.85c0,1.45,0,4.56,1.79,6.46a6.71,6.71,0,0,0,5,1.79H182.31A6.85,6.85,0,0,0,186.07,35.6Z" />
  </clipPath>
<path class="tab" d="M195.2,34.4c-0.2-0.3-1.4-2.2-1.5-4.7c0-0.2,0-0.3,0-0.4c0-6.9,0-13.9,0-20.8c0-0.7-0.1-3.5-1.8-5.9	c-1.8-2.6-4.1-2.7-4.5-2.8c-14.8,0-29.6,0-44.4,0H57C42.2,0,27.4,0,12.6,0c-0.5,0-2.7,0.2-4.5,2.8C6.5,5.1,6.3,7.9,6.3,8.6	c0,6.9,0,13.9,0,20.8c0,0.1,0,0.2,0,0.4c0,0.3-0.1,2.4-1.3,4.4c-1.6,2.7-4.4,3.7-5,3.9c19,0,38,0,57,0h86c19,0,38,0,57,0C199.3,37.8,196.8,36.9,195.2,34.4z"/>

</svg>
