<?xml version="1.0" encoding="utf-8"?>
<!-- Generator: Adobe Illustrator 25.2.3, SVG Export Plug-In . SVG Version: 6.00 Build 0)  -->
<svg version="1.1" id="Layer_1" xmlns="http://www.w3.org/2000/svg" xmlns:xlink="http://www.w3.org/1999/xlink" x="0px" y="0px"
	 viewBox="0 0 200 38" style="enable-background:new 0 0 200 38;" xml:space="preserve">
<style type="text/css">
	.st0{fill:#3E26ED;}
</style>
<path class="st0" d="M192.4,34.6c1.6-2.2,1.2-4.1,1.3-9.5c0-5.1,0.4-9,0-16.5c0-1-0.2-3.6-1.8-5.9c-1.8-2.6-4.1-2.7-4.5-2.8
	c-14.8,0-29.6,0-44.4,0H57C42.2,0,27.4,0,12.6,0c-0.5,0-2.7,0.2-4.5,2.8c-1.4,2-1.7,4.1-1.8,5.8C5.5,22.3,6.8,22,6.3,29.4
	c-0.2,2.4-0.4,4.6,1,6.3c1.6,2,4.4,2.2,5.7,2.3c5.9,0.3,22.2,0.4,44,0h86c14.8,0,29.6,0,44.4,0C188.8,37.5,191,36.6,192.4,34.6z"/>
</svg>
