<svg xmlns="http://www.w3.org/2000/svg" width="187.41" height="38.11" viewBox="0 0 187.41 38.11">
  <defs>
    <style>
      .cls-1 {
        fill: #3e26ed;
      }
    </style>
  </defs>
  <g id="Layer_2" data-name="Layer 2">
    <g id="Layer_1-2" data-name="Layer 1">
      <path class="cls-1" d="M185.48,35.88c1.9-2.1,1.92-5.05,1.93-6,0-.16,0-.29,0-.35V8.7a10.72,10.72,0,0,0-1.8-5.9A6.25,6.25,0,0,0,181.1,0H50.7C35.9.1,21.1.1,6.3.1A5.76,5.76,0,0,0,1.8,2.9,11.17,11.17,0,0,0,0,8.7V29.85a9.06,9.06,0,0,0,1.41,4.69A8.79,8.79,0,0,0,6.78,38.1H179.51A7.75,7.75,0,0,0,185.48,35.88Z"/>
 
    </g>
  </g>
</svg>
