<?xml version="1.0" encoding="utf-8"?>
<!-- Generator: Adobe Illustrator 24.1.2, SVG Export Plug-In . SVG Version: 6.00 Build 0)  -->
<svg version="1.1" id="Layer_1" xmlns="http://www.w3.org/2000/svg" xmlns:xlink="http://www.w3.org/1999/xlink" x="0px" y="0px"
	 viewBox="0 0 200 38" style="enable-background:new 0 0 200 38;" xml:space="preserve">
<style type="text/css">
	.st0{fill:#3E26ED;}
</style>
<path class="st0" d="M195.5,35.4c-1.8-2.4-1.8-5.4-1.8-6c0-6.9,0-13.9,0-20.8c0-0.7-0.1-3.5-1.8-5.9c-1.8-2.6-4.1-2.7-4.5-2.8
	c-14.8,0-29.6,0-44.4,0H57C42.2,0,27.4,0,12.6,0c-0.5,0-2.7,0.2-4.5,2.8C6.5,5.1,6.3,7.9,6.3,8.6c0,6.9,0,13.9,0,20.8
	c0,0.6,0,3.6-1.8,6C2.7,37.9,0.4,38,0,38h57h86h57C199.6,38,197.3,37.9,195.5,35.4z"/>
</svg>
