<svg xmlns="http://www.w3.org/2000/svg" width="187.41" height="38.24" viewBox="0 0 200 38">
  <defs>
    <style>
      .cls-1 {
        fill: #3e26ed;
      }
    </style>
  </defs>
  <g id="Layer_2" data-name="Layer 2">
    <g id="Layer_1-2" data-name="Layer 1">
       <path style="fill:red" class="cls-1" d="M195.2,34.54a9.45,9.45,0,0,1-1.5-4.69V8.7a10.72,10.72,0,0,0-1.8-5.9A6.25,6.25,0,0,0,187.4,0H57C42.2.1,27.4.1,12.6.1A5.76,5.76,0,0,0,8.1,2.9,11.17,11.17,0,0,0,6.3,8.7V29.85A9.68,9.68,0,0,1,5,34.24,9.39,9.39,0,0,1,0,38.1H200A9.18,9.18,0,0,1,195.2,34.54Z"/>
      <path class="cls-1" d="M183.13,37.12a8.81,8.81,0,0,0,4.28-7.27c0-.14,0-.24,0-.35V8.7a10.72,10.72,0,0,0-1.8-5.9A6.25,6.25,0,0,0,181.1,0H50.7C35.9.1,21.1.1,6.3.1A5.76,5.76,0,0,0,1.8,2.9,11.17,11.17,0,0,0,0,8.7V29.85s0,.19,0,.38S.52,34.93,3.76,37A7.62,7.62,0,0,0,8,38.1c5.5,0,21.35.07,42.73,0H177.27A8.74,8.74,0,0,0,183.13,37.12Z"/>
    </g>
  </g>
</svg>
