<svg xmlns="http://www.w3.org/2000/svg" width="17" height="44.018" viewBox="0 0 17 44.018"><g transform="translate(0 -11.982)" fill="#fff"><path d="M 8.499600410461426 55.49979782104492 C 4.088610649108887 55.49979782104492 0.500000536441803 51.91119003295898 0.500000536441803 47.50019836425781 C 0.500000536441803 44.72352981567383 1.907370567321777 42.1856689453125 4.264720439910889 40.71141815185547 L 4.499600410461426 40.56451797485352 L 4.499600410461426 40.28749084472656 L 4.499600410461426 12.48169898986816 L 12.49960041046143 12.48169898986816 L 12.49960041046143 15.9335994720459 L 12.49960041046143 40.28733825683594 L 12.49960041046143 40.56441879272461 L 12.73454093933105 40.71129989624023 C 15.09242057800293 42.18539810180664 16.50010108947754 44.72330856323242 16.50010108947754 47.50019836425781 C 16.50010108947754 51.91119003295898 12.91109085083008 55.49979782104492 8.499600410461426 55.49979782104492 Z" stroke="none"/><path d="M 8.499600410461426 54.99979782104492 C 12.63539028167725 54.99979782104492 16.00010108947754 51.63549041748047 16.00010108947754 47.50019836425781 C 16.00010108947754 44.89680862426758 14.68025016784668 42.51739120483398 12.46949100494385 41.13526916503906 L 11.99960041046143 40.84149932861328 L 11.99960041046143 40.28733825683594 L 11.99960041046143 15.9335994720459 L 11.99960041046143 12.98169898986816 L 4.999600410461426 12.98169898986816 L 4.999600410461426 40.28749084472656 L 4.999600410461426 40.84156036376953 L 4.529830455780029 41.13533782958984 C 2.319560527801514 42.51760864257813 1.000000596046448 44.89699935913086 1.000000596046448 47.50019836425781 C 1.000000596046448 51.63549041748047 4.364310741424561 54.99979782104492 8.499600410461426 54.99979782104492 M 8.499600410461426 55.99979782104492 C 3.805200576782227 55.99979782104492 5.447387820822769e-07 52.19459915161133 5.447387820822769e-07 47.50019836425781 C 5.447387820822769e-07 44.45846939086914 1.597710490226746 41.78960037231445 3.999600648880005 40.28749084472656 L 3.999600648880005 11.98169898986816 L 12.99960041046143 11.98169898986816 L 12.99960041046143 15.9335994720459 L 12.99960041046143 40.28733825683594 C 15.40213012695313 41.78936004638672 17.00010108947754 44.45817947387695 17.00010108947754 47.50019836425781 C 17.00010108947754 52.19459915161133 13.19400024414063 55.99979782104492 8.499600410461426 55.99979782104492 Z" stroke="none" fill="currentColor"/></g><path d="M343.5,143.625v28.6" transform="translate(-335 -136.313)" fill="none" stroke="currentColor" stroke-width="3"/><g transform="translate(3 30.018)" fill="currentColor" stroke="currentColor" stroke-width="1"><circle cx="5.5" cy="5.5" r="5.5" stroke="none"/><circle cx="5.5" cy="5.5" r="5" fill="none"/></g></svg>